<svg width="42" height="51" viewBox="0 0 42 51" fill="none" xmlns="http://www.w3.org/2000/svg">
<path d="M3.7 31C3.8 30.9 4 30.8 4.2 30.8H4.6C4.8 30.8 5 30.9 5.1 31H5.2H5.7C5.8 31 5.9 31 6.1 31.1C6.1 31.1 6.1 31.1 6.1 31L6.2 30.6C6.2 30.5 6.3 30.3 6.4 30.2C6.4 30 6.6 29.8 6.7 29.7L6.8 29.6L6.7 29.2L6.5 29C6.4 29.1 6.3 29.1 6.2 29.1H6.1C6 29.2 5.9 29.2 5.8 29.3H5.7L5.6 29.4C5.5 29.6 5.3 29.7 5 29.7H4.9C4.9 29.8 4.9 29.9 4.8 30L4.7 30.2L4.6 30.3C4.6 30.4 4.5 30.4 4.4 30.5L4.3 30.6C4.2 30.8 3.9 30.9 3.7 30.9C3.6 30.9 3.5 30.9 3.5 30.9H3.4C3.5 30.9 3.6 30.9 3.7 31Z" fill="white"/>
<path d="M5.5 15.9V15.8H5.4V15.7H5.3V15.8L5.2 15.7H5.1L5 16.1V16.2V16.3V16.4V16.5V16.7H5.1L5.2 16.6V16.5H5.3V16.4V16.5V16.4V16.5H5.4V16.4L5.3 16.3L5.4 16.2V16.1H5.5V16V15.9Z" fill="white"/>
<path d="M7.8 8.8L7 8.6C6.9 8.6 6.8 8.5 6.9 8.4L7 8H6.9L6.8 7.9L6.7 7.6C6.7 7.6 6.7 7.6 6.7 7.5V7.2L6.4 6.3H6.1L6 6.2C5.9 6.2 5.9 6.1 5.9 6L5.8 5H5.6H5.5C5.5 5 5.5 5.1 5.4 5.1L4.8 5.6L5 5.7C5 5.8 5 5.9 5 6H4.9C4.9 6 4.9 6 4.8 6.1L4.6 6.2L4.7 6.3C4.8 6.4 4.8 6.4 4.8 6.5V6.6H5C5.1 6.6 5.2 6.6 5.2 6.7L5.4 7V7.1C5.4 7.1 5.4 7.2 5.3 7.2L5.2 7.3C5.2 7.3 5.2 7.3 5.2 7.4V7.5L5.3 7.6C5.4 7.7 5.4 7.8 5.3 7.8L5.1 8V8.1H5.2C5.3 8.1 5.3 8.1 5.3 8.2L5.6 8.5L5.7 8.7L6.3 9H6.5C6.5 9 6.5 9 6.6 9L7.2 9.5C7.3 9.6 7.3 9.7 7.2 9.7L6.7 10.4L6.5 11.1C6.5 11.2 6.4 11.2 6.4 11.2C6.3 11.2 6.3 11.2 6.2 11.2H6.1H6C5.9 11.2 5.8 11.2 5.8 11.2H5.7H5.5L5.4 11.3C5.3 11.3 5.3 11.3 5.2 11.3L5.1 11.2C5 11.2 5 11.2 5 11.2L4.9 11.1V11V10.9L5.1 10.5V10.4C5.1 10.3 5.1 10.3 5.1 10.2L5.2 10.1L5.1 10C5.1 10 5.1 9.9 5.1 9.8L5 10H4.9L4.6 9.9H4.3L3.7 10.3L3.3 10.6L3.2 10.7L3.1 11V11.4V11.5L2.9 11.8C2.9 11.8 2.9 11.8 2.8 11.9L3.5 12.1C3.6 12.1 3.6 12.1 3.6 12.2C3.6 12.2 3.6 12.3 3.6 12.4L3.5 12.8C3.5 12.9 3.4 12.9 3.3 12.9H3.2L3.4 13L3.5 13.1C3.5 13.2 3.5 13.2 3.4 13.2V13.3L3.6 13.6C3.6 13.6 3.6 13.7 3.6 13.8L3.5 14L3.6 14.3C3.6 14.3 3.6 14.3 3.6 14.2C3.6 14.1 3.7 14.1 3.8 14.1H4C4.1 14.1 4.2 14.2 4.2 14.3L4.4 14C4.4 14 4.4 13.9 4.5 13.9L5.2 13.6H5.3H6L6.3 13.7C6.4 13.7 6.4 13.8 6.4 13.9L6.1 16C6.1 16.1 6.1 16.1 6 16.1H5.9L6 16.2C6.1 16.3 6.1 16.3 6 16.4L5.5 17.3L5.1 18.1C5.2 18.2 5.2 18.2 5.1 18.3L5 18.8L4.9 19.9L5 20H5.5H5.6L5.8 20.1L6.6 20H6.8H7L7.2 19.7C7.2 19.6 7.3 19.6 7.4 19.6C7.8 19.7 8.4 19.8 8.6 19.8C8.8 19.8 9.1 19.6 9.2 19.6C9.2 19.6 9.2 19.6 9.3 19.6C9.4 19.6 9.8 19.5 10 19.6C10.2 19.7 10.3 20 10.5 20.3C10.5 20.3 10.5 20.4 10.6 20.4C10.7 20.5 10.7 20.6 10.8 20.7C10.9 20.8 10.9 20.9 10.9 21C10.9 21.2 10.8 21.3 10.7 21.5C10.7 21.5 10.7 21.6 10.6 21.6C10.5 21.9 10.3 22.1 10.2 22.3C10.1 22.4 9.9 22.5 9.8 22.6C9.7 22.6 9.6 22.7 9.5 22.7C9.4 22.7 9.4 22.7 9.3 22.8C9.2 22.8 9.1 22.9 9 23V23.1C9.1 23.3 9.3 23.4 9.5 23.5C9.6 23.6 9.7 23.6 9.8 23.6C9.9 23.6 10 23.6 10.2 23.6C10.4 23.6 10.5 23.5 10.6 23.4C10.7 23.3 10.9 23.1 11 23C11.1 22.9 11.1 22.8 11.1 22.6C11.1 22.5 11.1 22.3 11.1 22.2V21.3V21.1C11.1 21.1 11.2 20.9 11.3 20.8C11.5 20.7 11.9 20.7 12 20.7C12.2 20.7 12.4 20.9 12.5 20.9C12.6 21 13.1 21.2 13.2 21.4C13.3 21.5 13.5 21.6 13.5 21.6L13.6 21.7L13.7 21.6L13.6 21.5L13.4 21.1L13 19.5L12.8 18.1C12.8 18.1 12.8 18.1 12.8 18V17.9L12.3 16.8L11.8 15.8C11.8 15.8 11.8 15.8 11.8 15.7V15.1C11.8 15.1 11.8 15.1 11.8 15L12 14.5C12 14.5 12 14.5 12 14.4L12.1 14.3H11.5C11.4 14.3 11.4 14.3 11.3 14.2L11 14.1V14C11 14 11 14 11 13.9C11 13.8 11.1 13.8 11.1 13.8H11.2L10.8 12.9L10.7 12.7L10.5 12L10.3 11.4L9.8 10C9.8 10 9.8 10 9.8 9.9V9.5H9.5L8.9 8.9C8.9 8.9 8.9 8.9 8.9 8.8L8.8 8.7L8.2 9.1H8.1C8 9.1 7.9 9 7.9 9L7.8 8.8Z" fill="white"/>
<path d="M9.7 9.20001L10 9.30001C10.1 9.30001 10.1 9.40001 10.1 9.50001V10C10.3 10.5 10.4 11 10.6 11.5L10.7 11.9L11 12.5L11.1 12.7L11.5 13.6V13.7V13.9V14H11.9H12.1C12.2 14 12.3 14 12.3 14.1L12.4 14.4C12.4 14.5 12.4 14.6 12.4 14.6L12.2 14.8L12 15.2V15.7L12.5 16.7L13 17.8C13 17.8 13 17.8 13 17.9V18C13 18 13 18 13 18.1L13.2 19.5L13.7 20.6L13.9 21L14 21.1C14.1 21.1 14.1 21.1 14.1 21.2L14.3 21L14.7 20.3L15.2 20C15.2 20 15.2 20 15.3 20L15.7 19.9L17 19.7L17.3 19.5V19.4V19.3L17.5 18.2L17.3 18V17.9V17.2L17.1 16.5C17.1 16.4 17.1 16.3 17.2 16.3H17.3L17.2 16.2L17.1 16.1L17 15.4L16.8 15C16.8 15 16.8 15 16.8 14.9V13.8C16.8 13.8 16.8 13.8 16.8 13.7L17 13.1V13L16.8 12.3L16.7 11.9L17 11.2V10.4L16.6 8.60001V8.00001L16.5 7.30001V7.20001L16.4 7.10001L16.1 6.90001L15.7 6.70001L15.4 6.50001L15 6.10001C15 6.00001 15 6.00001 14.9 6.00001L14.8 5.70001L14.4 5.80001L14.2 6.00001L12.3 7.60001L12 7.80001H11.9L11.8 7.90001L11.2 8.00001C11.2 8.00001 11.2 8.00001 11.1 8.00001L10.7 8.10001L10.2 8.20001H10L9.7 8.30001C9.7 8.30001 9.7 8.30001 9.6 8.30001L9.3 8.20001V8.30001C9.3 8.30001 9.3 8.40001 9.2 8.40001L9.1 8.50001L9.2 8.60001L9.7 9.20001Z" fill="white"/>
<path d="M5 14.7L4.9 14.9V15V15.1C5 15 5 15 5.1 15H5.2H5.3L5.4 14.5H5.3L5 14.7Z" fill="white"/>
<path d="M33.9 16L34 16.1H34.1L34.4 16.3V16.4L34.5 16.3L34.6 16.2H34.7L34.6 16.1H34.7L34.8 16.3V16.2L35 16.6L35.3 16.4L35.2 16.2L35.4 16.1L35.5 15.9L35.7 15.8L35.8 15.7V15.6V15.5H35.9V15.4H36L36.1 15.2H36.2V15.3L36.3 15.2V15.3L36.4 15.4H36.5H36.6V15.5H36.7H36.8L36.9 15.6V15.5L37 15.4H37.1V15.3L37 15.2V15.1H36.9L36.6 15L36.5 14.9H36.4L36.3 14.8H36.2L36.1 14.9V14.8L36 14.9H35.9H35.8L35.7 14.8H35.6L35.5 14.9L35.4 14.8V14.6H35.2L35.1 14.7L35 14.8L34.8 14.9H34.6H34.5V15L34.4 15.1H34.5L34.2 15.2L33.7 15.6L34 15.9L33.9 16Z" fill="white"/>
<path d="M14.9 5.3C15 5.3 15.1 5.3 15.1 5.4L15.2 5.8L15.6 6.1L16 6.3L16.4 6.6L16.7 6.9L16.8 7L16.9 7.1C16.9 7.1 16.9 7.1 16.9 7.2L17 8V8.6L17.4 10.4V11.2L17.5 11.6L17.6 12L17.8 12.8V12.9L17.7 13L17.5 13.6V14.6L17.7 15L17.8 15.6L18.1 15.9C18.2 15.9 18.2 16 18.2 16.1C18.2 16.2 18.1 16.2 18.1 16.2L17.8 16.3L17.9 16.9V17.5L18.1 17.7H18.7C18.8 17.7 18.9 17.8 18.9 17.8L19 18.4H19.1L19.5 18.6C19.5 18.6 19.5 18.6 19.6 18.6L19.7 18.4V17.7C19.7 17.6 19.7 17.6 19.8 17.6C19.8 17.6 19.9 17.5 19.9 17.6L20.8 17.7V17.3C20.8 17.2 20.9 17.2 20.9 17.1C21 17.1 21 17.1 21.1 17.1L21.2 17.2L21.6 17.5C21.6 17.5 21.7 17.5 21.7 17.6V17V16.9C21.9 16.5 22.1 16.2 22.2 15.8C22.4 15.4 22.6 14.9 22.8 14.5C22.8 14.5 22.8 14.4 22.9 14.4C22.9 14.3 22.9 14.3 22.9 14.2V13.8L22.8 12.8C22.8 12.7 22.8 12.7 22.9 12.6C23 12.5 23 12.6 23.1 12.6H23.2H23.3L23.4 12.4V12.3L24 11.7L23.9 11.6V11.5L24 11.3L23.9 11.2C23.9 11.1 23.9 11.1 23.9 11L24 10.8C24 10.7 24.1 10.7 24.2 10.7L24.5 10.8C24.6 10.8 24.6 10.9 24.6 10.9L24.7 11.1V11.2L24.8 11.3C24.8 11.3 24.9 11.4 24.8 11.5H24.9L25 11.6H25.5L25.8 11.3V11.2V11L25.7 10.4H24.6C24.5 10.4 24.4 10.4 24.4 10.3C24.4 10.2 24.4 10.1 24.5 10.1L25 9.7C25 9.6 25 9.6 25.1 9.5L25.8 8.8V8.7V8.6C25.8 8.5 25.9 8.5 25.9 8.5C26 8.5 26 8.5 26.1 8.5L26.3 8.6L26.5 8.5V8.4C26.5 8.3 26.5 8.2 26.6 8.2L26.8 8.1L26.6 7.9V8H26.2L26 7.8L25.5 7.4L25.1 7.1L24.7 6.9L24.5 6.8L24.4 6.7L24.2 6.5L24.1 6.7H23.8H23.4L23.1 6.4H23V6.7L22 6.6L21.2 6.4L20 6.1L19.4 5.8L18.2 5.3L18.1 5.1L18 5.2L17.3 5L16.2 5.2L16.4 4L16.5 2.7H16.9L16.8 2.3H17V1.8H16.6V0.8L17.7 0.9C17.7 0.9 17.7 0.7 17.7 0.5C17.7 0.4 17.6 0.2 17.6 0.2L17.4 0.3L17.1 0L16.1 0.6L15.7 0L15.1 0.4L15.4 1.3L14 1.6L14.9 5.3Z" fill="white"/>
<path d="M35.1 14.6H35.2L35.4 14.5L35.5 14.4L35.6 14.3H35.5H35.4V14.4H35.3H35.2L35.1 14.5V14.6Z" fill="white"/>
<path d="M14.8 28.6L15.8 27.3L16.1 27C15.7 26.9 15.3 26.7 15.2 26.1C15.1 25.9 15.1 25.7 15.2 25.5C15.2 25.3 15.3 25.1 15.5 24.9L15.6 24.8L16.4 24.2C16.5 24.1 16.6 24 16.7 23.9C16.9 23.7 17 23.4 17.1 23.1V23C17.1 22.9 17.1 22.8 17.1 22.7C17.1 22.7 17.1 22.7 17.1 22.6C17.1 22.5 17.1 22.5 17.1 22.5H17C16.8 22.5 16.6 22.6 16.4 22.6L16.3 22.7L16.2 22.8C16.1 22.8 16.1 22.9 16.1 22.9C16 23 15.9 23.1 15.8 23.1C15.7 23.2 15.5 23.3 15.4 23.3C15.2 23.3 15.1 23.3 14.9 23.3H14.8C14.7 23.3 14.6 23.3 14.5 23.2C14.5 23.2 14.4 23.1 14.2 22.9C14.1 22.7 13.9 22.2 13.9 22L13.8 21.7L13.6 21.6C13.6 21.6 13.4 21.5 13.3 21.3C13.2 21.2 12.9 21 12.7 20.9C12.6 20.9 12.5 20.8 12.4 20.8C12.3 20.8 12 20.8 11.9 20.9L11.8 21V21.2V22.1C11.8 22.3 11.8 22.4 11.7 22.6C11.7 22.8 11.6 22.9 11.5 23.1C11.4 23.3 11.2 23.5 11 23.6C10.9 23.7 10.7 23.8 10.5 23.9C10.3 23.9 10.1 24 10 23.9C9.8 23.9 9.7 23.8 9.5 23.7C9.3 23.6 9.1 23.4 8.9 23.1C8.8 22.9 8.9 22.7 9 22.6C9.1 22.5 9.3 22.4 9.4 22.3C9.5 22.3 9.6 22.2 9.7 22.2C9.8 22.2 9.8 22.2 9.9 22.1C10 22.1 10.1 22 10.2 21.9C10.3 21.7 10.4 21.6 10.6 21.3C10.6 21.3 10.6 21.2 10.7 21.2C10.7 21.1 10.8 21 10.8 21C10.8 21 10.8 20.9 10.7 20.8C10.7 20.7 10.6 20.6 10.5 20.5C10.5 20.5 10.5 20.4 10.4 20.4C10.3 20.2 10.2 20 10.1 19.9C10 19.9 9.8 19.9 9.7 19.9C9.3 19.8 9 20 8.7 20.1C8.4 20.1 7.7 20 7.4 19.9L7.2 20.2L7.1 20.3L6.8 20.4H6.6L5.8 20.5H5.7L5.5 20.4H5H4.9L4.8 20.3H4.7C4.6 20.3 4.6 20.2 4.6 20.1L4.5 20V20.2L4.7 20.3V20.5L4.9 20.6V20.7L4.7 20.9V21.1L4.8 21.3V23L5 24.4V24.6L5.1 24.7L5.6 26C5.7 26.3 5.7 26.4 5.7 26.4C5.7 26.4 5.7 26.5 5.8 26.7L6.2 27.3C6.2 27.3 6.2 27.3 6.1 27.3L5.8 27.5L5.9 27.6L6 28L6.1 28.1L6 28.2L5.9 28.1L5.8 28.2L5.7 28.3L5.4 28L5.3 28.1L5.2 28.2V28V27.9V27.7V27.6V27.5V27.4V27.3V27.2V27.1V27V26.9H5.1H5H4.9H4.8L4.7 27H4.8H4.9V27.1H4.8H4.7V27.2V27.3H4.8H4.7H4.6V27.4H4.7H4.6V27.3H4.5L4.4 27.2V27.3H4.3V27.5H4.1L4 28V27.9H3.9V27.8L4 27.7L4.1 27.6L3.9 27.8H3.8V28L3.5 28.2H3.4V28.3L3.3 28.5V28.6V28.7V28.8V28.9L3.4 29.1V29.2H3.3V29.1V29V28.9V28.8V28.7L3.2 28.8L3.1 28.9L3 29H2.4V29.1L2.3 29.2L2.6 29.3V29.4L2.7 29.5L2.6 29.4L2.5 29.5L2.3 29.4L2.4 29.3L2.5 29.2L2.4 29.4V29.5L2.6 29.6H2.7H2.8L3 29.7L3.6 30H3.4L3.5 29.9L3.8 30.1V30L4 29.9L4.1 29.8L4.2 29.6H4.1H4L3.9 29.5V29.4V29.3V29.2V29.1H4L4.1 29.2L4 29.3L4.3 29.4H4.2V29.3L4.3 29.2H4.4H4.5V29.1L4.6 29L4.9 29.1L4.8 29.2H4.9H5L5.1 29.1L5.3 28.9L5.4 28.8L5.6 28.6L5.8 28.8V28.7H5.9V28.6V28.7V28.8V28.7L6.1 28.6V28.5L7.3 29L7.5 29.9H7.4L7.6 30L7 30.4V30.6L6.8 30.7L6.7 31.1L7 31.3L7.1 31.5L7.3 31.6L7.4 31.8L7 32L6.5 32.2L6 32.1L5.8 31.7H5.2V32.3V32.4H4.8H4.7V31.7L4.6 31.6H4.2L3.9 32C3.9 32.1 3.8 32.1 3.8 32.2C3.9 32.3 3.9 32.4 3.8 32.5C3.7 32.6 3.6 32.6 3.5 32.5C3.5 32.6 3.5 32.6 3.4 32.7L3.5 32.8C3.5 32.9 3.5 32.9 3.4 33C3.4 33 3.3 33.1 3.2 33.1C3.2 33.1 3.2 33.2 3.1 33.2C3.1 33.2 3.1 33.2 3 33.2C2.9 33.2 2.9 33.2 2.8 33.3H2.7C2.7 33.4 2.6 33.4 2.6 33.5C2.5 33.6 2.5 33.7 2.5 33.7C2.5 33.8 2.5 33.8 2.5 33.9C2.5 34 2.5 34.2 2.5 34.3V34.4C2.5 34.4 2.6 34.5 2.6 34.6L2.7 34.9C2.8 34.9 2.9 35 3 35.1C3 35.1 3 35.1 3.1 35.1C3.1 35.1 3.1 35.1 3.2 35.1C3.3 35.1 3.3 35 3.4 35C3.5 34.8 3.8 34.9 3.8 34.9C3.8 34.9 3.8 34.9 3.9 34.9C4 34.9 4.2 35 4.2 35.1C4.3 35.2 4.3 35.4 4.2 35.4C4.3 35.4 4.3 35.4 4.4 35.4C4.5 35.4 4.6 35.6 4.6 35.6C4.6 35.7 4.7 35.8 4.7 35.8H4.8C4.9 35.7 4.9 35.6 5 35.6C5.2 35.4 5.3 35.3 5.5 35.1C5.6 35 5.7 35 5.7 35.1C6 35.2 6 35.4 6 35.5V35.6C6 35.6 6 35.6 6.1 35.6C6.1 35.5 6.2 35.5 6.2 35.5V35.4C6.3 35.3 6.4 35.3 6.5 35.3C6.7 35.3 6.8 35.3 6.9 35.4L7.1 34.9C7.1 34.9 7.1 34.8 7.2 34.8C7.2 34.7 7.2 34.7 7.2 34.6C7.2 34.6 7.2 34.5 7.3 34.5V34.4C7.3 34.3 7.3 34.2 7.3 34.1C7.3 34 7.3 33.9 7.3 33.8H7.2C7.1 33.8 7.1 33.7 7.1 33.6C7.1 33.5 7 33.4 7.1 33.2C7.1 33.1 7.2 33.1 7.2 33.1C7.1 33.1 7.1 33 7.1 33C7.1 32.9 7 32.8 7.1 32.7C7.1 32.6 7.1 32.6 7.1 32.5C7.1 32.4 7.2 32.4 7.3 32.4L8 32H8.1C8.2 32 8.4 32 8.5 32H8.6C8.8 32.1 9 32.2 9 32.4C9.3 32.8 9.5 33.2 9.8 33.6C9.9 33.8 10.1 34 10.2 34.3L13.1 31.7L14 30.6L13.4 30.1L13.3 30C13.3 29.9 13.3 29.9 13.4 29.9L14.8 28.6Z" fill="white"/>
<path d="M23 21.4C23 21.3 23.1 21.3 23.2 21.3H23.7L23.8 21.2V21.1V20.9C23.8 20.9 23.8 20.9 23.8 20.8L24 20.3C24 20.3 24 20.2 24.1 20.2L24.3 20.1C24.4 20.1 24.4 20.1 24.5 20.1C24.5 20.1 24.5 20.1 24.6 20.1L24.8 20.3L25.6 19.6L25.5 19.3L25.3 19.1H24.9H24.3L22.5 18.5L22.1 18.3C22.1 18.3 22.1 18.3 22 18.3L21.8 18.2C21.8 18.2 21.8 18.2 21.7 18.1L21.6 17.8L21.3 17.6V18C21.3 18.1 21.3 18.1 21.2 18.1C21.1 18.1 21.1 18.2 21.1 18.1L20 18V18.5C20 18.5 20 18.5 20 18.6L19.9 18.9C19.9 19 19.8 19 19.7 19L19.6 19.1C19.5 19.1 19.5 19.1 19.4 19.1L19 18.9H18.9H18.8L18.7 18.8L18.6 18.2H18.3L18.1 19.3V19.4H18V19.5C18 19.5 18 19.5 18 19.6L17.9 19.7L17.6 19.9H17.5L16.1 20.1H15.8L15.3 20.4L14.9 21.1C14.9 21.1 14.9 21.1 14.8 21.2L14.3 21.5C14.3 21.5 14.2 21.5 14.1 21.5C14 21.5 14 21.5 14 21.4L13.9 21.5L14 21.7C14.1 22 14.2 22.4 14.3 22.5C14.4 22.6 14.4 22.7 14.5 22.7H14.6H14.7C14.8 22.7 15 22.7 15.1 22.7C15.2 22.7 15.3 22.6 15.4 22.5C15.5 22.4 15.6 22.4 15.6 22.3C15.7 22.3 15.7 22.2 15.8 22.1C15.8 22.1 15.8 22.1 15.9 22C16 21.9 16 21.9 16.1 21.8C16.3 21.7 16.6 21.6 16.8 21.6H16.9C17.2 21.7 17.3 21.8 17.3 21.8C17.3 21.9 17.4 22 17.4 22.1C17.4 22.1 17.4 22.1 17.4 22.2C17.4 22.3 17.4 22.4 17.4 22.5C17.4 22.6 17.4 22.6 17.4 22.7C17.3 23 17.2 23.3 17 23.6C16.9 23.8 16.7 23.9 16.6 24.1L15.7 25L15.6 25.1C15.5 25.2 15.5 25.3 15.4 25.5C15.4 25.6 15.4 25.8 15.4 25.9C15.5 26.3 15.8 26.5 16.3 26.6C16.5 26.6 16.9 26.5 17.1 26.3H17.2C17.3 26.2 17.4 26.3 17.4 26.3L17.6 26.5H17.7V26.4L17.8 26.2L17.9 26L18.2 25.6C18.2 25.5 18.3 25.5 18.4 25.5C18.4 25.5 18.4 25.5 18.5 25.5H18.6L19 25.6C19 25.6 19 25.5 19.1 25.5H19.2L19.5 25.6C19.5 25.6 19.6 25.6 19.6 25.7H19.7C19.9 25.6 20.1 25.6 20.3 25.5C20.4 25.5 20.4 25.5 20.5 25.5H20.6H20.7C20.7 25.5 20.7 25.4 20.8 25.4C20.9 25.4 20.9 25.4 21 25.4L21.2 25.5V25.1C21.2 25.1 21.2 25.1 21.2 25L21.3 24.8L21.4 24.7C21.4 24.7 21.5 24.7 21.6 24.7L21.8 24.8C21.9 24.7 22 24.8 22.1 24.8L22.2 24.9L22.1 24.7C22.1 24.7 22.1 24.7 22.1 24.6V24.5L22.2 24.4L22.3 24.3L22.4 24.2C22.5 24.2 22.5 24.2 22.6 24.2L22.7 24.3L22.9 24.8L23.2 24.6C23.2 24.6 23.2 24.6 23.3 24.6C23.3 24.6 23.3 24.6 23.4 24.5C23.4 24.5 23.4 24.5 23.5 24.5C23.5 24.5 23.5 24.4 23.6 24.4V24.3C23.6 24.2 23.6 24.2 23.7 24.1C23.8 24.1 23.9 24.1 23.9 24.1L24.3 24.5L24.5 24V23.8L24.4 23.5L24.3 23.4L23.5 22.8L22.9 22.6C22.9 22.6 22.9 22.6 22.8 22.6C22.7 22.5 22.7 22.4 22.8 22.3L22.9 22.2L22.8 21.8V21.7L23 21.4Z" fill="white"/>
<path d="M18.7 50L18.8 49.9V49.8C18.8 49.8 18.8 49.7 18.9 49.7L19 49.6V49.5V49.4V49.3L18.7 49.1C18.6 49.1 18.6 49 18.6 48.9L18.7 48.7L18.4 48.4C18.3 48.3 18.3 48.2 18.4 48.1L18.3 48L18.2 47.7L17.7 47.1V46.5L17.9 46.6L18.1 45.5H17.9L18.1 44.5L18.2 43.4L18.5 43.1L19.2 42.6L19.1 42.3H19C19 42.4 18.9 42.4 18.8 42.4H18.7C18.6 42.4 18.6 42.4 18.6 42.3V42.2V42L18.3 41.3L17.3 40.9C17.2 40.9 17.2 40.8 17.2 40.7L17.4 40.1L17.3 40V39.9L17.4 39.1V39C17.3 39 17.3 38.9 17.3 38.8L17.4 38.4C17.3 38.4 17.3 38.4 17.3 38.3L17.2 38.2C17.1 38.2 17 38.2 17 38.1L16.9 37.8C16.9 37.8 16.9 37.7 16.9 37.6L17 37.5H17.2V37.1C17.2 37 17.2 37 17.3 36.9V36.8C17.3 36.8 17.2 36.8 17.2 36.7L17.1 36.6C17.1 36.6 17 36.5 17.1 36.4L17.2 36.2C17.2 36.1 17.3 36.1 17.3 36.1L17.5 36L17.7 35.5V35.4L17.4 35.3C17.3 35.3 17.3 35.2 17.3 35.1V34.9C17.3 34.8 17.3 34.8 17.3 34.8L17.4 34.7L17.5 34.5V34.2H17.4C17.3 34.2 17.3 34.1 17.3 34L17.4 33.8C17.4 33.7 17.5 33.7 17.5 33.7C17.6 33.7 17.6 33.7 17.7 33.7L18.2 34.1L19 34V32.6V32.5L19.3 32H19.2C19.1 32 19.1 31.9 19.1 31.9C19.1 31.9 19.1 31.8 19.1 31.7C19.1 31.6 19.1 31.6 19.2 31.6L19.1 31.5L19 31.4V31.2V31V30.9V30.7C19 30.6 19.1 30.6 19.1 30.6H19.2L19.4 30.4V30.3L19.5 30.1V29.9H19.4H19.3L19 29.7C18.9 29.7 18.9 29.6 18.9 29.5V29.1L18.7 28.9L18.5 28.6L17.9 27.4L17.5 26.9L17.4 26.7C17.1 26.9 16.8 27 16.5 27L16.2 27.4L15.2 28.7L14 29.9L14.6 30.4L14.7 30.5C14.7 30.6 14.7 30.6 14.7 30.6L13.7 31.8L10.7 34.4L12.4 37V37.1V37.3C12.5 37.3 12.5 37.3 12.6 37.4L13.4 38.6L14 39L14.5 39.2C14.5 39.2 14.6 39.2 14.6 39.3L14.7 39.4L14.8 39.3H14.9L15.7 39.6H15.8C15.9 39.6 15.9 39.8 15.9 39.9L15.8 40.2L15.9 40.3L16 40.6C16 40.7 16 40.8 15.9 40.8L15.6 41H15.5L15.6 41.1C15.6 41.2 15.6 41.2 15.6 41.3L15.5 41.5H15.6C15.7 41.5 15.7 41.5 15.8 41.5L15.9 41.6C16 41.6 16 41.7 16 41.8H16.1C16.2 41.8 16.2 41.9 16.2 42L16.1 42.3L16.3 42.4C16.4 42.4 16.4 42.5 16.4 42.6V42.7V42.8L16.3 42.9L16 43.7L15.9 43.8H15.6H15.4L14.8 43.6L13.9 44.5L13.7 44.8L13.6 44.9L12.4 45.5C12.3 45.5 12.3 45.5 12.2 45.5L12.1 45.4L11.5 45.7V46L11.6 46.1C11.6 46.1 11.7 46.2 11.7 46.3V46.6L11.8 46.4L11.9 46.3L12.2 46.2C12.2 46.2 12.2 46.2 12.3 46.2H12.6C12.7 46.2 12.7 46.2 12.7 46.3L12.8 46.4L13 46.3C13.1 46.3 13.2 46.3 13.2 46.4L13.3 46.5L13.9 46.4C14 46.4 14 46.4 14 46.4L14.2 46.6L14.3 46.7V46.9L14.7 47C14.7 47 14.7 47 14.8 47L15.1 47.2L15.3 47.4L15.5 47.7C15.5 47.8 15.5 47.8 15.5 47.9L15.4 48.3L15.3 48.6C15.3 48.6 15.3 48.7 15.2 48.7L15.4 48.8H15.5H15.6V48.7C15.6 48.6 15.7 48.6 15.8 48.6H15.9V48.5L15.4 48.3C15.3 48.3 15.3 48.2 15.3 48.2C15.3 48.1 15.3 48.1 15.3 48L15.4 47.8C15.4 47.7 15.5 47.7 15.6 47.7L15.8 47.8L16 47.7L16.4 47.2C16.5 47.1 16.6 47.1 16.6 47.2L16.8 47.3L17.2 47.2C17.3 47.2 17.3 47.2 17.4 47.3C17.4 47.3 17.5 47.4 17.5 47.5L17.2 49.2V49.4L18.1 50L18.2 49.9C18.2 49.9 18.3 49.8 18.4 49.9C18.6 49.9 18.6 50 18.7 50Z" fill="white"/>
<path d="M30.2 35.9L30 35.1L29.9 34.6V34.3L30 33.7V33.5C30 33.5 30 33.5 29.9 33.5C29.7 33.6 27.9 34.5 27.8 34.5H27.7L26.8 34.4H26.5C26.4 34.4 26 34.6 25.7 34.5C25.4 34.5 24.6 34.1 24.5 34.1L23.4 33.3L23.1 33L23 32.9C23 32.9 23 32.9 23 32.8C23 32.6 23.1 31.8 23.1 31.5C23.1 31.4 23.2 31.3 23.3 31.2C23.3 31.2 23.3 31.2 23.4 31.2C23.5 31.1 23.5 31.1 23.6 31.1C24.1 30.9 24.5 30.6 25 30.4C25.4 30.2 25.5 29.9 25.4 29.5V29.4C25.3 29.3 25.2 29.1 25.1 29C24.8 28.8 24.4 28.6 24.1 28.6H23.9L23.4 28.5H23.3L23.1 28.3L22.9 28C22.8 28 22.8 27.9 22.8 27.8V27.3L22.5 25.9V25.3H22.3C22.2 25.3 22.2 25.3 22.1 25.2V25C22 25 22 25 21.9 25H21.7V25.5C21.7 25.6 21.6 25.7 21.5 25.7H21.4H21.3H21.2C21.2 25.7 21.2 25.8 21.1 25.8C21.1 25.8 21 25.8 20.9 25.8H20.8C20.8 25.8 20.8 25.8 20.7 25.8L20 25.9C19.9 25.9 19.8 25.9 19.8 26C19.7 26 19.6 26 19.6 25.9C19.6 26 19.6 26 19.5 26C19.5 26 19.4 26 19.3 26L18.9 25.8L18.8 25.9H18.7L18.5 26.2L18.4 26.4L18.3 26.5V26.6L18.1 26.8L18.3 27C18.3 27 18.3 27 18.3 27.1L18.9 28.3L19.1 28.6C19.1 28.6 19.1 28.6 19.2 28.7L19.3 28.8C19.3 28.8 19.4 28.9 19.3 28.9V29.3H19.4L19.6 29.2H19.7L19.8 29.3L19.9 29.7V29.8L19.7 30V30.1V30.2L19.4 30.5C19.4 30.5 19.3 30.5 19.3 30.6L19.4 30.7C19.4 30.7 19.4 30.7 19.4 30.8V31L19.6 31.2C19.7 31.2 19.7 31.3 19.7 31.4C19.8 31.4 19.8 31.4 19.8 31.5C19.8 31.6 19.8 31.6 19.8 31.7L19.3 32.4V34C19.3 34.1 19.3 34.1 19.2 34.1C19.2 34.1 19.1 34.2 19.1 34.1L18.2 34H18.1L18 34.2V34.6V34.7L17.9 34.9L17.7 35L17.9 35.1H18C18.1 35.1 18.1 35.1 18.2 35.2C18.2 35.2 18.2 35.3 18.2 35.4L18.1 35.7L17.9 36.3L17.8 36.4H17.7C17.7 36.4 17.8 36.5 17.8 36.6C17.8 36.6 17.8 36.6 17.9 36.7C17.9 36.8 17.9 36.8 17.9 36.9L17.8 37V37.2C17.8 37.3 17.8 37.3 17.7 37.3V37.7C17.7 37.8 17.6 37.9 17.6 37.9C17.6 37.9 17.7 37.9 17.7 38L17.8 38.1H17.9C18 38.1 18 38.1 18 38.2C18 38.2 18 38.3 18 38.4L17.9 38.9C18 38.9 18 39 18 39C18 39 18 39.1 18 39.2L17.9 39.3L17.8 39.4L17.7 40L17.8 40.2V40.3L17.6 40.8L18.5 41.2L18.6 41.3L18.9 42V41.8C18.9 41.8 18.9 41.7 19 41.7L19.2 41.5H19.3L21.8 41.8H21.9H22H22.6H23.1L23.5 41.7L23.9 41.5H24H24.2L24.3 41.4C24.3 41.4 24.3 41.3 24.4 41.3L26.3 40L26.5 39.9C26.6 39.9 26.6 39.9 26.7 39.9H26.8V39.7C26.8 39.7 26.8 39.6 26.9 39.6L28.2 38.6L29.7 37.1L29.8 37H30V36.9C30 36.8 30 36.8 30 36.7L30.3 36.3L30.2 35.9C30.2 36 30.2 36 30.2 35.9Z" fill="white"/>
<path d="M19.5 50.4L19.4 50.3V50.2H19.6V49.9V49.4L19.5 49.3V49.4L19.6 49.5C19.6 49.6 19.6 49.7 19.6 49.7L19.4 49.8V49.9V50L19.1 50.3C19.1 50.3 19.1 50.3 19 50.3H18.9V50.4C18.9 50.4 18.9 50.5 18.8 50.5L18.9 50.6H19H19.2L19.3 50.5V50.4L19.4 50.5V50.7V50.8L19.7 50.7L19.5 50.4Z" fill="white"/>
<path d="M19.1 48.3L19.2 48.2L19.1 48.1L19 48.3L18.9 48.1L18.8 47.9L18.6 48L19 48.4C19 48.4 19.1 48.5 19 48.6V48.9L19.3 49.1L19.4 49.2H19.5L19.4 48.4L19.1 48.3Z" fill="white"/>
<path d="M40.9 27.2H41.3L41 26.8L41.4 26.6L40.8 26.4L40.7 26.1H40.1V25.8L39.9 25.5L39.7 25.1L39.4 25H39.1H39.2L39 24.7L38.8 24.9H38.7V24.6L38.3 24.5H38.2H38L37.9 24.8L38.1 24.9L38.2 24.8L38.3 24.9V25L37.9 25.1L38 25L37.6 25.2L37.3 25.1L37 25.3L36.5 25.4V25.3H36.3V25.5V25.6L36 25.8L35.8 25.7V25.5V25.4H35.3L34.7 25.1L34.6 25L34.7 24.6L34.8 24.2L35 23.8L35.4 23.6L35.9 23.1L36.5 23.2L36.3 22.5L36.5 22.4L36.4 22.2L36.3 22.4L35 22.9L34 23H33.7L33.6 22.6V19.8L33.8 19.5L33.6 19.4V18.9L33.5 16.7L33.4 15.9L33.6 15.6L33.4 15.5L33.3 15L33.2 14.7L33 14.1L32.8 13.9V13.7H32.6L27.1 8.70001L27 8.80001V8.90001C27 9.00001 27 9.10001 26.9 9.10001L26.4 9.30001C26.3 9.30001 26.3 9.30001 26.2 9.30001L25.6 10C25.6 10.1 25.6 10.1 25.5 10.2L25.3 10.3H26C26.1 10.3 26.2 10.4 26.2 10.5L26.3 11.3C26.3 11.3 26.3 11.3 26.3 11.4V11.7C26.3 11.7 26.3 11.7 26.3 11.8L26.2 11.9L25.9 12.3C25.9 12.3 25.8 12.4 25.7 12.4L25 12.3H24.9V12L24.8 12.1C24.7 12.1 24.6 12.1 24.5 12L24.4 11.9L23.7 12.6L23.6 12.9C23.6 13 23.5 13 23.5 13L23.2 13.1L23.3 13.8V14.2C23.3 14.3 23.3 14.4 23.3 14.4C23.3 14.5 23.2 14.6 23.2 14.6C23 15 22.8 15.5 22.6 15.9C22.4 16.3 22.3 16.6 22.1 17V18L22.5 18.1L24.3 18.7H24.9L25.4 18.8C25.4 18.8 25.5 18.8 25.5 18.9L25.8 19.2C25.8 19.2 25.8 19.2 25.8 19.3L26.4 20.7V20.8V21C26.3 21.2 26.2 21.6 26.2 21.8C26.2 22 26.2 22.1 26.3 22.2C26.3 22.2 26.4 22.3 26.5 22.4L27.3 22.8L27.4 22.9L28 23.5L28.8 23.7H28.9L29.2 24L29.8 24.5L33.3 26.6C33.3 26.6 33.3 26.6 33.4 26.6L34.5 27.3L34.8 27.5L34.9 27.6C34.9 27.7 34.9 27.7 34.8 27.7L35.4 28.2L35.9 27.6L36.1 27.4L36.4 27H37L37.5 26.9L37.7 27.6H37.9H38.2L38.4 27.9V28.3L38.9 28L38.8 28.2L38.7 28.4L38.6 28.6L38.5 28.8L38.2 28.9L38 29.3L37.8 29.6V29.9L38.2 30L38.3 30.5L40.2 30.6L40.4 30.7L41.2 30.8L41 30.6L40.9 30.5V30.2L41.1 30L41 29.7L41.1 29.2L40.8 28.9L39.9 28.4C39.9 28.4 40.4 28.2 40.7 28.2C40.7 28.2 40.7 28.2 40.8 28.2C40.9 28.2 41 28.2 41.1 28.2C41.2 28.2 41.2 28.2 41.3 28.1C41.3 28 41.2 28 41.2 27.9C41.2 27.8 41.1 27.8 41.1 27.8L41 27.6H40.6L40 27.1L40.5 27.2H40.9Z" fill="white"/>
<path d="M34.5 28.8C34.5 28.7 34.5 28.7 34.6 28.7L34.7 28.6L34.3 28.2C34.2 28.1 34.2 28 34.3 27.9L34.4 27.8L34.3 27.7L33.3 27.1L29.7 25L29.1 24.5L28.8 24.3L28 24.1C28 24.1 27.9 24.1 27.9 24L27.3 23.3L27.2 23.2L26.4 22.8C26.3 22.8 26.1 22.6 26 22.5C25.9 22.4 25.9 22.2 25.9 21.9C25.9 21.7 26.1 21.2 26.1 21V20.9L25.8 20.2L25 20.9C24.9 21 24.9 21 24.8 20.9L24.6 20.7L24.2 21V21.2C24.2 21.2 24.2 21.2 24.2 21.3L24.1 21.5C24.1 21.5 24.1 21.5 24 21.6L23.8 21.8H23.7H23.3L23.4 22.2V22.3L23.8 22.4L24.6 23L24.7 23.1L24.9 23.4C24.9 23.4 24.9 23.4 24.9 23.5V23.8V23.9L24.5 24.7L24.4 24.8C24.4 24.8 24.4 24.8 24.3 24.8H24.2H24.1L23.9 24.6C23.9 24.6 23.8 24.6 23.8 24.7V24.8C23.8 24.9 23.8 24.9 23.7 24.9H23.6C23.6 25 23.5 25 23.5 25C23.4 25 23.4 25 23.3 25L22.9 25.2C22.9 25.2 22.8 25.2 22.7 25.2H22.6V25.8L22.9 27.2V27.6H23.1H23.2L23.4 27.8L24 28H24.2C24.6 28.1 25 28.2 25.3 28.5C25.5 28.6 25.7 28.8 25.8 29.1C25.8 29.2 25.8 29.2 25.8 29.3C25.9 29.8 25.7 30.3 25.2 30.6C24.8 30.8 24.3 31.1 23.8 31.3L23.6 31.4L23.5 31.6L23.4 32.8L23.6 33L24.7 33.8C24.9 33.9 25.5 34.1 25.8 34.1C26 34.1 26.4 34 26.5 34H26.9L27.7 34.1L29.5 33.2C29.6 33.2 29.7 33.1 29.8 33.1C29.9 33.1 30 33.1 30 33.1H30.1C30.2 33.1 30.3 33.2 30.3 33.2C30.3 33.3 30.4 33.3 30.4 33.5V33.7L30.3 34.3V34.6L30.4 35.1L30.6 35.8L30.7 35.9L32 34.4C32 34.4 32 34.4 32.1 34.4L32.2 34.3H32.3V34.2C32.3 34.1 32.3 34.1 32.3 34L33.1 33.2L33.4 32.6C33.4 32.6 33.4 32.5 33.5 32.5V32.4V31.8L33.1 30.4L32.8 29.3C32.8 29.2 32.8 29.1 32.9 29.1C33 29.1 33.1 29.1 33.1 29.1L34.5 30.2L34.8 29.1L34.6 28.9C34.5 28.9 34.5 28.8 34.5 28.8Z" fill="white"/>
<path d="M3.2 1.99998L2.8 2.29998L2.3 2.59998L2.7 2.69998L3 3.09998L3.2 3.39998V3.59998L3.5 3.69998L3.6 3.59998L3.5 3.39998L4 2.99998L5.2 3.99998L4.8 4.19998L4.6 4.59998H4.4L4.7 4.99998V5.19998L5.1 4.89998V4.79998C5.1 4.69998 5.1 4.69998 5.2 4.69998L5.5 4.49998C5.6 4.49998 5.6 4.49998 5.7 4.49998C5.8 4.49998 5.8 4.59998 5.8 4.69998H5.9C6 4.69998 6 4.69998 6 4.69998L6.1 4.79998L6.5 4.49998L6.3 4.19998V3.89998L6.7 2.89998L7.2 3.09998H7.3L7.4 2.99998H7.3L7 2.29998L6.9 2.19998L7.2 1.39998H7.8L7.9 1.09998V0.899976L8 0.799976L7.8 0.699976V0.499976H7.6L7.5 0.399976L7.2 0.499976V0.399976L7.1 0.499976V0.599976L7 0.699976L6.2 0.999976L6.1 0.899976L6.2 0.699976L6 0.599976L5.9 0.499976H5.6V0.699976H5.4L5.1 0.399976L5.2 0.199976H4.1L4 0.299976V0.399976L3.8 0.799976L3.6 0.499976L3.5 0.599976L3.3 0.399976V0.299976V0.199976H3.1V0.0999756L2.7 0.399976V0.499976V0.699976L3.2 1.49998L3.8 1.99998L3.6 2.29998L3.2 1.99998Z" fill="white"/>
<path d="M1.1 17.4L1.2 17.5V17.6H1.3H1.4L1.3 17.7L1.2 17.8L1.1 17.9H1L0.800002 18H0.700002H0.600002H0.500002H0.600002V18.1H0.500002H0.400002V18.2V18.3V18.4H0.500002V18.8H0.600002V18.5V18.4V18.3V18.2V18.1V18H0.700002L0.800002 18.1L1.1 18.2L2.1 19L2.3 19.1L2.2 19.3H2.1V19.4L1.9 19.5L1.6 19.6H1.5H1.4L1.3 20V20.1H1.2L1.3 20.2L1.4 20.3H1.5H1.7H1.9V20.4L2 20.6H2.1H2.2H2.3H2.4H2.5H2.6H2.7H2.8V20.5V20.3L3.1 20.4H3.2L3 20.2H3.1L3 20.3H3.1H3.4V20.2V20.1L3.5 19.9V19.8L3.6 19.7V19.5V19.4L3.7 19.3L4 19.2V19.1L4.2 19L4.3 18.9L4.2 18.8L4.3 18.7L4.5 18.6L4.6 18.5V18.4L4.4 18.3L4.3 18.2H4.2L4.3 18H4.2L4.1 17.9H4V17.8H3.9H3.8L3.7 17.7L3.5 17.6L3.6 17.5H3.7L3.8 17.3L4 17.2L4.1 17.1V17C4.1 17 4 17 4 16.9L3.5 16.6H3.4L3.1 16.8L3 16.7L2.8 16.9L2.7 17V17.1H2.6H2.5H2.4H2.3L2 17H1.9H1.8L1.7 17.1H1.6V17.2H1.5L1.1 17.4Z" fill="white"/>
<path d="M0.2 17.2V17.3V17.4V17.5V17.4L0.5 17.3L0.7 17.2L0.8 16.8V16.7H0.7H0.6H0.5H0.4L0.2 16.8H0V16.9L0.2 17.2Z" fill="white"/>
</svg>
