<svg width="22" height="22" viewBox="0 0 22 22" fill="none" xmlns="http://www.w3.org/2000/svg">
    <path d="M21.193 10.7059C21.612 10.1765 21.9114 9.58823 21.9114 8.94118C21.9114 7.47059 20.7739 6.35294 19.2772 6.35294H14.1885L15.0865 4.17647C15.2661 3.82353 15.326 3.41176 15.326 3.05882C15.326 1.82353 14.6076 0.705882 13.4701 0.294118C13.1708 0.0588235 12.6918 0 12.2728 0C11.0155 0 9.87807 0.705882 9.45901 1.82353L7.48339 6.35294H3.53216C1.55655 6.35294 0 7.94118 0 9.82353V18.5294C0 20.4706 1.61641 22 3.53216 22H19.3371C20.0555 22 20.6542 21.7647 21.193 21.2353C21.7318 20.7059 21.9712 20.1176 21.9712 19.4118C21.9712 18.7059 21.7318 18.1176 21.2528 17.6471C21.6719 17.1176 21.9712 16.5294 21.9712 15.8824C21.9712 15.1765 21.7318 14.5882 21.2528 14.1176C21.6719 13.5882 21.9712 13 21.9712 12.3529C21.9114 11.7647 21.6719 11.1765 21.193 10.7059ZM7.12419 20.3529H5.32817V15.8824C5.32817 15.3529 4.9091 15 4.43017 15C4.0111 15 3.53216 15.3529 3.53216 15.8824V20.3529C2.57429 20.3529 1.73615 19.5882 1.73615 18.5882V9.88235C1.73615 8.94118 2.51442 8.11765 3.53216 8.11765H7.06432V20.3529H7.12419ZM16.9424 11.5882H19.2772C19.6963 11.5882 20.1752 11.9412 20.1752 12.4706C20.1752 12.7059 20.1154 12.8824 19.9358 13.0588C19.7561 13.2353 19.5765 13.2941 19.3371 13.2941H17.0023C16.4635 13.2941 16.1043 13.6471 16.1043 14.1765C16.1043 14.7059 16.4635 15.0588 17.0023 15.0588H19.3371C19.7561 15.0588 20.2351 15.4118 20.2351 15.9412C20.2351 16.1765 20.1752 16.3529 19.9956 16.5294C19.816 16.7059 19.6364 16.7647 19.3969 16.7647H17.0621C16.5233 16.7647 16.1641 17.1176 16.1641 17.6471C16.1641 18.1765 16.5233 18.5294 17.0621 18.5294H19.3969C19.816 18.5294 20.295 18.8824 20.295 19.4118C20.295 19.6471 20.2351 19.8235 20.0555 20C19.8759 20.1765 19.6963 20.2353 19.4568 20.2353H8.86033V7.70588L8.9202 7.64706L11.0754 2.58824C11.3149 2 12.153 1.64706 12.8714 1.88235C13.4102 2.05882 13.6497 2.58824 13.6497 3.11765C13.6497 3.29412 13.6497 3.47059 13.5898 3.64706L12.153 7.05882C12.0932 7.29412 12.0932 7.64706 12.2129 7.82353C12.3925 8.05882 12.632 8.17647 12.9313 8.17647H19.3371C19.7561 8.17647 20.2351 8.52941 20.2351 9.05882C20.2351 9.29412 20.1752 9.47059 19.9956 9.64706C19.816 9.82353 19.6364 9.88235 19.3969 9.88235H17.0621C16.5233 9.88235 16.1641 10.2353 16.1641 10.7647C16.0444 11.1765 16.5233 11.5882 16.9424 11.5882Z" fill="#69DE56"/>
</svg>
