<svg width="32" height="38" viewBox="0 0 32 38" fill="none" xmlns="http://www.w3.org/2000/svg">
<path d="M12.3183 6.71333C14.1937 6.71333 15.6856 5.19333 15.6856 3.33556C15.6856 1.47778 14.1511 0 12.2757 0C10.4428 0 8.95102 1.52 8.95102 3.33556C8.95102 5.19333 10.4428 6.71333 12.3183 6.71333Z" fill="white"/>
<path d="M16.4954 22.927L17.8167 22.2092C17.8167 22.2092 17.3478 20.0559 17.3478 19.8026L16.3249 12.5403L18.8397 13.5537L20.2036 19.0848L19.4364 19.507C19.1807 19.6337 19.0102 19.887 18.9249 20.1403C18.8397 20.3937 18.8823 20.6892 19.0102 20.9426L19.479 21.787L16.6659 23.3492C16.197 23.6026 16.0265 24.1937 16.2822 24.6581L17.9872 27.7403C18.4987 27.7403 21.184 27.5714 24.2955 26.0092L24.1676 25.7981C24.0824 25.6292 24.125 25.4181 24.2955 25.2915L24.6365 25.1226C24.807 25.0381 25.0201 25.0803 25.148 25.2492L25.2758 25.4603C28.2595 23.687 29.7939 21.4914 30.0497 21.0692L28.3021 17.987C28.0464 17.5226 27.4496 17.3537 26.9808 17.607L24.1676 19.1692L23.6988 18.3248C23.4004 17.8181 22.761 17.6492 22.2496 17.9026L21.9938 18.0292L21.2266 11.4003L14.5773 8.69812C14.0658 8.40256 13.4265 8.27589 12.8297 8.36034C12.4887 8.40256 12.1904 8.52923 11.892 8.65589L6.60667 11.8226L0.724603 10.0492L0 11.8648L6.86241 15.0737L10.5707 12.8359L11.6789 20.5626C11.6789 20.6892 11.7215 20.7737 11.7641 20.8581L8.73785 27.2337L6.64929 37.2826L9.07884 38.0003L12.1051 28.3737L14.4494 23.5181L15.856 29.0914L19.0954 30.3159L15.9839 24.7848C15.5576 24.1514 15.8134 23.307 16.4954 22.927ZM22.6332 18.4092C22.8463 18.2826 23.102 18.367 23.2299 18.5781L23.6988 19.4226L20.0331 21.4492L19.5643 20.6048C19.5216 20.5203 19.479 20.3937 19.5216 20.267C19.5643 20.1403 19.6069 20.0559 19.7348 20.0137L20.6725 19.507L22.2069 19.127L22.1643 18.7048L22.6332 18.4092Z" fill="white"/>
<path d="M21.7806 31.371L26.6824 33.271L27.6627 31.1599L24.8496 29.6821L21.7806 31.371Z" fill="white"/>
<path d="M31.8824 24.1934L30.2627 21.3223C29.7939 21.9979 28.2594 24.0245 25.4462 25.6712L25.6167 25.9245C25.702 26.0934 25.6594 26.3045 25.4889 26.4312L25.1479 26.6001C24.9774 26.6845 24.7643 26.6423 24.6364 26.4734L24.4659 26.2201C21.5675 27.6979 18.9674 27.9512 18.1576 27.9934L19.7773 30.9068C20.033 31.3712 20.6298 31.5401 21.0986 31.2868L31.4562 25.5868C31.9677 25.2912 32.1382 24.6579 31.8824 24.1934Z" fill="white"/>
</svg>
