<svg width="20" height="22" viewBox="0 0 20 22" fill="none" xmlns="http://www.w3.org/2000/svg">
    <path d="M12.5946 6.1875H3.73174C3.32358 6.1875 3.03204 5.90104 3.03204 5.5C3.03204 5.09896 3.32358 4.8125 3.73174 4.8125H12.5363C12.9444 4.8125 13.236 5.09896 13.236 5.5C13.2943 5.90104 13.0027 6.1875 12.5946 6.1875Z" fill="#69DE56"/>
    <path d="M12.5946 8.9375H3.73174C3.32358 8.9375 3.03204 8.65104 3.03204 8.25C3.03204 7.84896 3.32358 7.5625 3.73174 7.5625H12.5363C12.9444 7.5625 13.236 7.84896 13.236 8.25C13.2943 8.65104 13.0027 8.9375 12.5946 8.9375Z" fill="#69DE56"/>
    <path d="M12.5946 11.6875H3.73174C3.32358 11.6875 3.03204 11.401 3.03204 11C3.03204 10.599 3.32358 10.3125 3.73174 10.3125H12.5363C12.9444 10.3125 13.236 10.599 13.236 11C13.236 11.401 13.0027 11.6875 12.5946 11.6875Z" fill="#69DE56"/>
    <path d="M12.5946 14.4375H3.73174C3.32358 14.4375 3.03204 14.151 3.03204 13.75C3.03204 13.349 3.32358 13.0625 3.73174 13.0625H12.5363C12.9444 13.0625 13.236 13.349 13.236 13.75C13.2943 14.151 13.0027 14.4375 12.5946 14.4375Z" fill="#69DE56"/>
    <path d="M5.48098 17.0729H3.73174C3.32358 17.0729 3.03204 16.7864 3.03204 16.3854C3.03204 15.9843 3.32358 15.6979 3.73174 15.6979H5.42267C5.83083 15.6979 6.12237 15.9843 6.12237 16.3854C6.18068 16.7864 5.88914 17.0729 5.48098 17.0729Z" fill="#69DE56"/>
    <path d="M19.0667 14.6666C18.7752 14.3802 18.367 14.3802 18.0755 14.6666L12.3613 20.2812L8.6879 16.6718C8.39636 16.3854 7.98821 16.3854 7.69667 16.6718C7.40513 16.9583 7.40513 17.3593 7.69667 17.6458L11.8365 21.7135C12.0115 21.8854 12.1864 21.9427 12.3613 21.9427C12.5362 21.9427 12.7112 21.8854 12.8861 21.7135L19.1251 15.5833C19.3583 15.3541 19.3583 14.9531 19.0667 14.6666Z" fill="#69DE56"/>
    <path d="M15.3933 19.0208C15.3933 19.1354 15.3933 19.1927 15.3933 19.3073L16.7927 17.9323V15.9844L15.3933 17.3594V19.0208ZM10.6704 20.5677L11.8365 21.7135C12.0115 21.8854 12.1864 21.9427 12.303 21.9427C12.4779 21.9427 12.6529 21.8854 12.7695 21.7135L13.9356 20.5677C13.819 20.5677 13.7607 20.5677 13.6441 20.5677H10.6704ZM13.7607 0H3.03202C1.34109 0 0 1.31771 0 2.97917V19.0208C0 20.6823 1.34109 22 3.03202 22H9.91237L8.51298 20.625H3.03202C2.09909 20.625 1.39939 19.9375 1.39939 19.0208V2.97917C1.39939 2.0625 2.09909 1.375 3.03202 1.375H13.819C14.7519 1.375 15.4516 2.0625 15.4516 2.97917V15.2396L16.851 13.8646V2.97917C16.7927 1.31771 15.4516 0 13.7607 0Z" fill="#69DE56"/>
</svg>
