<svg width="27" height="22" viewBox="0 0 27 22" fill="none" xmlns="http://www.w3.org/2000/svg">
    <path d="M18.7563 6.91099C17.2909 6.91099 15.8842 7.14136 14.712 7.48691V4.03141C14.712 1.72775 11.5468 0 7.32667 0C3.10651 0 0 1.72775 0 4.03141V17.8534C0 20.1571 3.16512 22 7.38528 22C9.72982 22 11.7813 21.4817 13.0708 20.5602C14.3603 21.4241 16.4117 22 18.7563 22C22.9764 22 26.1416 20.2147 26.1416 17.8534V10.9424C26.2002 8.63874 23.0351 6.91099 18.7563 6.91099ZM1.7584 10.2513C3.04789 11.1152 5.09936 11.6335 7.38528 11.6335C8.85062 11.6335 10.2573 11.4031 11.4296 11.0576V12.6126C10.4918 13.0157 9.08507 13.3613 7.38528 13.3613C4.10294 13.3613 1.7584 12.0366 1.7584 10.9424V10.2513ZM1.7584 13.7068C3.04789 14.5707 5.09936 15.089 7.38528 15.089C8.85062 15.089 10.2573 14.8586 11.4296 14.5131V16.0681C10.4918 16.4712 9.08507 16.8168 7.38528 16.8168C4.10294 16.8168 1.7584 15.4921 1.7584 14.3979V13.7068ZM7.38528 20.2147C4.10294 20.2147 1.7584 18.9476 1.7584 17.8534V17.1047C3.04789 17.9686 5.09936 18.4869 7.38528 18.4869C8.85062 18.4869 10.2573 18.2565 11.4296 17.911C11.4296 18.4293 11.6054 18.8325 11.8399 19.2932C10.7849 19.8115 9.2023 20.2147 7.38528 20.2147ZM13.0708 7.48691C13.0708 8.58115 10.609 9.90576 7.4439 9.90576C4.27878 9.90576 1.81701 8.63874 1.81701 7.48691V6.73822C3.10651 7.60209 5.15798 8.12042 7.4439 8.12042C9.72982 8.12042 11.7227 7.60209 13.0708 6.73822V7.48691ZM7.38528 6.45026C4.10294 6.45026 1.7584 5.18325 1.7584 4.03141C1.7584 2.87958 4.22016 1.72775 7.38528 1.72775C10.5504 1.72775 13.0122 2.93717 13.0122 4.03141C13.0708 5.18325 10.609 6.45026 7.38528 6.45026ZM24.4418 17.8534C24.4418 18.9476 21.98 20.2723 18.8149 20.2723C16.9979 20.2723 15.4153 19.8691 14.4189 19.3508C13.6569 18.9476 13.188 18.4293 13.188 17.9686V17.2199C13.5983 17.5654 14.243 17.7958 14.8292 17.9686C15.9428 18.3717 17.2909 18.5445 18.8735 18.5445C21.1594 18.5445 23.1523 18.0262 24.5004 17.1623V17.8534H24.4418ZM24.4418 14.3979C24.4418 15.4921 21.98 16.8168 18.8149 16.8168C17.2323 16.8168 15.8256 16.4712 14.7706 16.0681C13.7155 15.6649 13.1294 15.0314 13.1294 14.4555V13.7068C13.5397 13.9372 14.0672 14.2251 14.712 14.4555H14.7706C15.8842 14.8586 17.2909 15.0314 18.8149 15.0314C20.2802 15.0314 21.6869 14.801 22.9178 14.3403C23.504 14.1675 24.0315 13.9372 24.5004 13.5916V14.3979H24.4418ZM24.4418 10.9424C24.4418 12.0366 21.98 13.3613 18.8149 13.3613C17.2323 13.3613 15.8256 13.0157 14.7706 12.6126C13.7155 12.2094 13.1294 11.5759 13.1294 11C13.1294 10.4817 13.7155 9.79058 14.7706 9.38743C15.7084 8.98429 17.1151 8.63874 18.8149 8.63874C21.98 8.63874 24.4418 9.84817 24.4418 10.9424Z" fill="#69DE56"/>
</svg>
