<svg width="14" height="22" viewBox="0 0 14 22" fill="none" xmlns="http://www.w3.org/2000/svg">
<path d="M6.6 22C6.36216 22 6.18378 21.9433 6.0054 21.7732L0.237838 16.2732C0 16.0464 -0.0594595 15.7062 0.0594595 15.4227L4.04324 5.5567L1.72432 1.13402C1.60541 0.907217 1.60541 0.623711 1.78378 0.396907C1.96216 0.170103 2.2 0 2.4973 0H10.7027C11 0 11.2378 0.113402 11.4162 0.396907C11.5946 0.623711 11.5946 0.907217 11.4757 1.13402L9.15676 5.5567L13.1405 15.4794C13.2595 15.7629 13.2 16.1031 12.9622 16.3299L7.19459 21.8299C7.01622 21.9433 6.77838 22 6.6 22ZM1.78378 15.5361L6.6 20.1289L11.4162 15.5361L7.49189 5.78351C7.43243 5.5567 7.43243 5.3299 7.55135 5.15979L9.45405 1.58763H3.80541L5.70811 5.15979C5.82703 5.3299 5.82703 5.6134 5.76757 5.78351L1.78378 15.5361Z" fill="white"/>
<path d="M8.26488 6.29381H4.93515C4.45948 6.29381 4.10272 5.9536 4.10272 5.49999C4.10272 5.04638 4.45948 4.70618 4.93515 4.70618H8.20542C8.6811 4.70618 9.03786 5.04638 9.03786 5.49999C9.03786 5.9536 8.6811 6.29381 8.26488 6.29381Z" fill="white"/>
</svg>
