<svg width="14" height="22" viewBox="0 0 14 22" fill="none" xmlns="http://www.w3.org/2000/svg">
<path d="M5.65934 22H7.52692V19.313H5.65934V22ZM13.1863 6.21374C13.0165 2.91094 10.3 0.167939 6.96099 0C6.8478 0 6.67802 0 6.56483 0C4.86703 0 3.28242 0.615776 2.09396 1.79135C0.962088 2.85496 0.282967 4.25445 0.113187 5.82188L0 6.3257H1.86758L1.92418 5.93384C2.03736 4.87023 2.5467 3.8626 3.33901 3.13486C4.2445 2.29517 5.37637 1.84733 6.62143 1.84733C6.67802 1.84733 6.79121 1.84733 6.8478 1.84733C9.22472 1.95929 11.1489 3.8626 11.3187 6.26972C11.4319 8.11705 10.4132 9.9084 8.65879 10.6921C7.01758 11.5318 5.88571 13.0433 5.71593 14.7786V14.9466V15.2824H5.77253V17.8575H7.64011V14.9466C7.80989 13.883 8.5456 12.9313 9.56428 12.4275C11.9412 11.2519 13.356 8.7888 13.1863 6.21374Z" fill="white"/>
</svg>
