<svg width="20" height="20" viewBox="0 0 20 20" fill="none" xmlns="http://www.w3.org/2000/svg">
<path d="M18.6805 2.82927C18.6316 2.82927 18.6316 2.73171 18.6805 2.82927C18.2407 2.2439 17.8009 1.7561 17.2633 1.41463C17.2633 1.41463 17.2144 1.41463 17.2144 1.36585C15.9927 0.439024 14.6243 0 13.1093 0C9.29749 0 6.21869 3.07317 6.21869 6.87805C6.21869 8.04878 6.51191 9.17073 7.09835 10.2439L0.549786 16.8293C-0.183262 17.561 -0.183262 18.7805 0.549786 19.4634C0.843006 19.8049 1.3317 20 1.8204 20C2.3091 20 2.74893 19.8049 3.13989 19.4146L9.73732 12.878C10.7147 13.4634 11.9365 13.7561 13.1093 13.7561C16.9212 13.7561 20 10.6829 20 6.87805C20 5.36585 19.5602 4 18.6805 2.82927ZM2.26023 18.5366C2.01588 18.7805 1.62492 18.7805 1.38057 18.5366C1.13622 18.2927 1.13622 17.9024 1.38057 17.6585L7.78253 11.2683L7.8314 11.3171C7.97801 11.4634 8.07575 11.561 8.22236 11.7073C8.22236 11.7073 8.22236 11.7073 8.22236 11.7561C8.36897 11.9024 8.46671 12 8.61332 12.1463C8.61332 12.1463 8.61332 12.1951 8.66219 12.1951L2.26023 18.5366ZM13.1093 12.4878C11.9853 12.4878 10.9102 12.1951 9.98167 11.561C9.68845 11.3659 9.34636 11.122 9.10202 10.8293C8.95541 10.6829 8.85767 10.5854 8.71106 10.3902C8.56445 10.2439 8.51558 10.1463 8.41784 9.95122C8.41784 9.95122 8.41784 9.95122 8.41784 9.90244C7.78253 8.97561 7.48931 7.90244 7.48931 6.82927C7.48931 3.70732 9.98167 1.21951 13.1093 1.21951C14.38 1.21951 15.504 1.60976 16.4814 2.34146C16.4814 2.34146 16.4814 2.34146 16.5302 2.39024C16.9212 2.68293 17.2633 3.02439 17.6054 3.46341C17.6054 3.46341 17.6054 3.5122 17.6542 3.5122C18.3873 4.4878 18.7783 5.65854 18.7783 6.87805C18.7294 10 16.237 12.4878 13.1093 12.4878Z" fill="#336799"/>
<path d="M13.1094 11.2683C12.7184 11.2683 12.4741 11.0244 12.4741 10.6341C12.4741 10.2439 12.7184 9.99999 13.1094 9.99999C14.8687 9.99999 16.237 8.63414 16.237 6.87804C16.237 6.4878 16.4814 6.2439 16.8723 6.2439C17.2633 6.2439 17.5077 6.4878 17.5077 6.87804C17.5077 9.31707 15.5529 11.2683 13.1094 11.2683Z" fill="#336799"/>
</svg>
