<svg width="215" height="75" viewBox="0 0 215 75" fill="none" xmlns="http://www.w3.org/2000/svg">
<path d="M83.2555 30.311V17.741H87.481V29.9327C87.481 31.32 88.1504 32.5392 90.3678 32.5392C92.5851 32.5392 93.2545 31.362 93.2545 29.9327V17.741H97.4801V30.311C97.4801 34.2628 94.426 36.6591 90.3678 36.6591C86.3096 36.6591 83.2555 34.2628 83.2555 30.311Z" fill="#3A64A2"/>
<path d="M106.726 30.1849H104.718V36.2808H100.492V17.741H107.856C111.37 17.741 114.173 20.5577 114.173 24.0891C114.173 26.3592 112.792 28.4192 110.784 29.4702L114.717 36.2808H110.198L106.726 30.1849ZM104.718 26.4854H107.897C109.069 26.4854 109.989 25.4344 109.989 24.0891C109.989 22.7438 109.027 21.6928 107.897 21.6928H104.718V26.4854Z" fill="#3A64A2"/>
<path d="M127.519 33.38H120.658L119.737 36.2808H115.135L121.411 17.741H126.766L133.041 36.2808H128.439L127.519 33.38ZM126.264 29.4282L124.088 22.6176L121.913 29.4282H126.264Z" fill="#A80532"/>
<path d="M150.989 27.0319C150.989 32.2869 147.099 36.2808 142.036 36.2808H134.673V17.741H142.036C147.099 17.741 150.989 21.7768 150.989 27.0319ZM146.931 27.0319C146.931 23.8368 144.923 21.8609 142.036 21.8609H138.857V32.2449H142.036C144.923 32.2028 146.931 30.1849 146.931 27.0319Z" fill="#A80532"/>
<path d="M159.566 30.1849H157.558V36.2808H153.332V17.741H160.696C164.21 17.741 167.013 20.5577 167.013 24.0891C167.013 26.3592 165.632 28.4192 163.624 29.4702L167.557 36.2808H163.039L159.566 30.1849ZM157.558 26.4854H160.738C161.909 26.4854 162.829 25.4344 162.829 24.0891C162.829 22.7438 161.867 21.6928 160.738 21.6928H157.558V26.4854Z" fill="#A80532"/>
<path d="M181.154 32.2028V36.2808H169.565V17.741H181.028V21.8189H173.791V24.8878H180.359V28.9237H173.791V32.2028H181.154Z" fill="#A80532"/>
<path d="M182.618 32.0767L186.258 29.9747C186.927 31.5302 188.057 32.5392 190.149 32.5392C192.157 32.5392 192.659 31.7404 192.659 31.0257C192.659 29.8907 191.613 29.4282 188.852 28.6715C186.091 27.9148 183.413 26.5695 183.413 23.0381C183.413 19.4646 186.425 17.4047 189.605 17.4047C192.617 17.4047 195.002 18.8761 196.341 21.6087L192.785 23.7107C192.157 22.4075 191.278 21.5667 189.605 21.5667C188.308 21.5667 187.639 22.2393 187.639 22.954C187.639 23.7948 188.099 24.3834 190.944 25.2662C193.747 26.107 196.885 27.0739 196.885 31.0257C196.885 34.5992 194.04 36.7012 190.023 36.7012C186.091 36.6591 183.622 34.8094 182.618 32.0767Z" fill="#A80532"/>
<path d="M209.477 33.38H202.616L201.696 36.2808H197.094L203.369 17.741H208.724L215 36.2808H210.398L209.477 33.38ZM208.222 29.4282L206.047 22.6176L203.871 29.4282H208.222Z" fill="#A80532"/>
<path d="M74.5953 0H0V74.958H74.5953V0Z" fill="white"/>
<path d="M39.9543 19.7169H48.238V18.4557H39.9543V19.7169ZM40.2471 37.8784H48.5308V36.6172H40.2471V37.8784ZM38.8247 58.4361H47.1084V57.1749H38.8247V58.4361ZM39.9543 17.3206H48.238V16.0594H39.9543V17.3206ZM39.9543 14.9243H48.238V13.6631H39.9543V14.9243ZM40.2471 42.5448H48.5308V41.2836H40.2471V42.5448ZM66.7717 54.1059C66.7717 53.6435 66.3952 53.2651 65.935 53.2651C65.3911 53.2651 64.9728 53.6855 64.9728 54.2321V56.3761H66.7717V54.1059ZM40.2471 47.2113H48.5308V45.9501H40.2471V47.2113ZM40.2471 44.8571H48.5308V43.5959H40.2471V44.8571ZM47.3176 28.5874H39.0339V29.8487H47.3176V28.5874ZM38.8247 53.8117H47.1084V52.5504H38.8247V53.8117ZM38.8247 51.4574H47.1084V50.1962H38.8247V51.4574ZM47.3176 33.2539H39.0339V34.5151H47.3176V33.2539ZM38.8247 56.1239H47.1084V54.8627H38.8247V56.1239ZM47.3176 26.2752H39.0339V27.5364H47.3176V26.2752ZM39.9543 22.1132H48.238V20.852H39.9543V22.1132ZM47.3176 23.921H39.0339V25.1822H47.3176V23.921ZM66.2697 62.7663C65.7677 62.7663 65.3493 63.1867 65.3493 63.6911V65.3728H67.0646V63.565C67.0646 63.1026 66.7299 62.7663 66.2697 62.7663ZM47.3176 30.8997H39.0339V32.1609H47.3176V30.8997ZM40.2471 40.2326H48.5308V38.9714H40.2471V40.2326ZM54.8482 53.2651C54.3043 53.2651 53.886 53.6855 53.886 54.2321V56.3761H55.685V54.1059C55.685 53.6435 55.3084 53.2651 54.8482 53.2651ZM66.2697 59.2769C65.7677 59.2769 65.3493 59.6973 65.3493 60.2018V61.8834H67.0646V60.0757C67.0646 59.6132 66.7299 59.2769 66.2697 59.2769ZM64.0942 63.523C64.0942 63.1026 63.7176 62.7242 63.2993 62.7242C62.7972 62.7242 62.3789 63.1446 62.3789 63.6491V65.3307H64.0942V63.523ZM61.2074 35.8604C61.2074 35.44 60.8309 35.0617 60.4125 35.0617C59.9105 35.0617 59.4921 35.4821 59.4921 35.9865V38.8453H61.2074V35.8604ZM57.2748 45.866C57.2748 47.6317 58.6972 49.0191 60.4125 49.0191C62.1697 49.0191 63.5503 47.5897 63.5503 45.866C63.5503 44.1003 62.1278 42.713 60.4125 42.713C58.6972 42.713 57.2748 44.1003 57.2748 45.866ZM72.2105 71.5527H73.8422V69.0303H72.2105V71.5527ZM72.2105 74.7057H73.8422V72.1833H72.2105V74.7057ZM54.3462 59.2769C53.8441 59.2769 53.4258 59.6973 53.4258 60.2018V61.8834H55.1411V60.0757C55.1411 59.6132 54.7645 59.2769 54.3462 59.2769ZM69.9932 74.958H70.7044V68.0213H74.5953V67.3907H69.9932V74.958ZM54.3462 62.7663C53.8441 62.7663 53.4258 63.1867 53.4258 63.6911V65.3728H55.1411V63.565C55.1411 63.1026 54.7645 62.7663 54.3462 62.7663ZM56.3962 65.3728H58.1115V63.565C58.1115 63.1446 57.735 62.7663 57.3166 62.7663C56.8146 62.7663 56.3962 63.1867 56.3962 63.6911V65.3728ZM56.3962 60.2018V61.8834H58.1115V60.0757C58.1115 59.6553 57.735 59.2769 57.3166 59.2769C56.8146 59.2769 56.3962 59.6553 56.3962 60.2018ZM63.0901 54.1059C63.0901 53.6435 62.7136 53.2651 62.2534 53.2651C61.7095 53.2651 61.2911 53.6855 61.2911 54.2321V56.3761H63.0901V54.1059ZM60.5799 66.5079C58.237 66.5079 56.3125 68.4417 56.3125 70.796V75H64.5544V70.5437C64.5544 68.2735 62.7554 66.5079 60.5799 66.5079ZM61.0819 60.0757C61.0819 59.6553 60.7054 59.2769 60.287 59.2769C59.785 59.2769 59.3666 59.6973 59.3666 60.2018V61.8834H61.0819V60.0757ZM64.0942 60.0757C64.0942 59.6553 63.7176 59.2769 63.2993 59.2769C62.7972 59.2769 62.3789 59.6973 62.3789 60.2018V61.8834H64.0942V60.0757ZM59.3666 54.1059C59.3666 53.6435 58.9901 53.2651 58.5299 53.2651C57.986 53.2651 57.5676 53.6855 57.5676 54.2321V56.3761H59.3666V54.1059ZM61.0819 63.523C61.0819 63.1026 60.7054 62.7242 60.287 62.7242C59.785 62.7242 59.3666 63.1446 59.3666 63.6491V65.3307H61.0819V63.523ZM19.747 68.8621H26.943V67.7691H19.747V68.8621ZM8.1582 32.4972H11.4633V27.7046H8.1582V32.4972ZM12.5511 49.0191H15.8562V41.4938H12.5511V49.0191ZM8.1582 49.0191H11.4633V41.4938H8.1582V49.0191ZM8.1582 40.8212H11.4633V33.296H8.1582V40.8212ZM12.5511 57.2169H15.8562V49.6917H12.5511V57.2169ZM26.943 48.2203H19.747V49.3133H26.943V48.2203ZM26.943 50.2382H19.747V51.3313H26.943V50.2382ZM12.5511 32.4972H15.8562V27.7046H12.5511V32.4972ZM19.747 66.8442H26.943V65.7511H19.747V66.8442ZM0 0V64.532H4.56023V63.1446H4.01635V62.5561H4.56023C4.35104 62.3459 4.22553 62.0516 4.22553 61.7152C4.22553 61.0426 4.76941 60.4961 5.4388 60.4961C6.10819 60.4961 6.65207 61.0426 6.65207 61.7152C6.65207 62.0516 6.52656 62.3459 6.31738 62.5561H6.98677V63.1446H6.44289V64.532H15.145V69.9552H14.1409V68.9462H12.1745V69.9552H11.3796V68.9462H9.41331V71.3005H11.0031V72.1413H9.41331V74.4955H11.0031V75H11.9235V70.6278H45.4349V74.958H46.2716V69.9552H42.59V62.2197H43.2176V59.2769H44.7237V62.2197H45.5186V59.2769H47.0247V62.2197H47.8196V59.2769H49.3257V62.2197H50.1206V59.2769H51.6268V62.2197H52.589V58.2259H51.8778V57.1328H52.4217V52.3823H52.1288V51.2892H52.2543L53.1747 46.4126L54.3462 51.2892H55.5176V43.8901H55.9778V40.7371H55.6431V39.6861H56.3125V33.0437H57.8186L60.2452 20.6839L59.0737 21.5667L59.6176 19.9271L58.237 18.9182H59.9523L60.4962 17.2786L61.0401 18.9182H62.7554L61.3748 19.9271L61.9187 21.5667L60.8309 20.7679L62.9227 33.0437H64.2197V39.6861H65.0564V40.7371H64.8472V43.8901H65.1819V51.2892H66.3115L67.2319 46.4126L68.4034 51.2892H68.4871V52.3823H68.1105V57.1328H68.8636V58.2259H68.1524V62.2197H69.3656V59.2769H70.8718V62.2197H71.6667V59.2769H73.1728V62.2197H73.9677V59.2769H74.8044V0H0ZM17.4878 69.9552H15.898V63.8173H15.8562V57.9316H12.5511V63.8173H11.4633V57.9316H8.1582V63.8173H7.73983V61.8414H7.40514C7.40514 61.7993 7.40514 61.7573 7.40514 61.7573C7.40514 61.0426 7.0286 60.412 6.44289 60.0757V27.032H8.11636V24.5095H15.9817V27.032H17.5297V69.9552H17.4878ZM29.2859 41.2836H28.0307V52.5504H29.2859V64.8683H28.0307V69.9552H26.943V69.787H19.747V69.9552H18.7848V64.574H20.0399V52.9288H18.7848V41.1155H20.0399V30.2691H18.7848V20.7679H20.0399V19.3806H27.1522V20.7679H28.0307V30.1429H29.2859V41.2836ZM36.0216 30.9837H35.7287V33.296H34.8083V37.2478H34.3063V46.1603H35.5614V48.5146H34.5991V54.6525H35.143V69.9552H31.3777V54.6525H31.8797V48.4725H30.9175V46.1183H32.34V42.0404H32.4236V37.2478H31.7542V33.296H30.792V30.9837H30.4991V27.032H32.0471V24.2152H32.7165V20.1373H32.0053V19.1704H32.8002V12.9064H32.0889V11.8974H33.093V7.1889H33.5951V11.8974H34.5573V12.9064H33.7624V19.1704H34.5573V20.1373H33.7624V24.2152H34.3063V27.032H36.0634V30.9837H36.0216ZM49.6604 22.912H48.1961V35.398H49.6604V49.0191H48.1961V58.5202H42.5063V59.4871H38.8247V60.7483H42.5063V61.421H41.8788V63.7332H40.2053V64.9944H41.8788V66.0454H40.2053V67.3066H41.8788V68.3576H40.2053V69.6188H41.8788V69.8711H38.992V62.6822H37.5277V48.5146H38.992V35.6502H37.5277V22.7859H38.992V11.9815H39.9961V10.426H48.1543V11.9815H49.6186V22.912H49.6604ZM17.1113 74.958H22.7593V74.2433H17.1113V74.958ZM35.8542 74.958H41.0002V74.2433H35.8542V74.958ZM35.8542 73.7808H41.0002V71.9311H35.8542V73.7808ZM17.1113 73.7808H22.7593V71.9311H17.1113V73.7808ZM26.943 46.2024H19.747V47.2954H26.943V46.2024ZM8.1582 57.2169H11.4633V49.6917H8.1582V57.2169ZM26.4828 74.958H31.6287V74.2433H26.4828V74.958ZM26.4828 73.7808H31.6287V71.9311H26.4828V73.7808ZM12.5511 40.8212H15.8562V33.296H12.5511V40.8212ZM27.9889 33.1698H20.793V34.2629H27.9889V33.1698ZM27.9889 35.1878H20.793V36.2808H27.9889V35.1878ZM27.9889 37.2057H20.793V38.2988H27.9889V37.2057ZM20.9603 55.0729H28.1563V53.9798H20.9603V55.0729ZM20.9603 57.0908H28.1563V55.9978H20.9603V57.0908ZM20.9603 61.1267H28.1563V60.0336H20.9603V61.1267ZM26.943 44.1844H19.747V45.2775H26.943V44.1844ZM20.9603 63.1446H28.1563V62.0516H20.9603V63.1446ZM20.9603 59.1087H28.1563V58.0157H20.9603V59.1087ZM20.793 40.3167H27.9889V39.2237H20.793V40.3167ZM27.194 28.4613H19.9981V29.5544H27.194V28.4613ZM27.194 26.3593H19.9981V27.4524H27.194V26.3593ZM26.943 42.1665H19.747V43.2595H26.943V42.1665ZM27.9889 31.1519H20.793V32.245H27.9889V31.1519ZM27.194 24.2993H19.9981V25.3924H27.194V24.2993ZM27.194 22.1973H19.9981V23.2904H27.194V22.1973Z" fill="url(#paint0_linear)"/>
<path d="M85.4728 53.5594C84.5105 53.5594 83.7993 53.2652 83.2554 52.6766C82.7115 52.088 82.4605 51.2472 82.4605 50.1962C82.4605 49.1032 82.7115 48.2624 83.2554 47.6318C83.7993 47.0432 84.5524 46.7489 85.5146 46.7489C85.8493 46.7489 86.1422 46.7909 86.4769 46.833C86.8115 46.875 87.0207 47.0011 87.2299 47.0852L86.9371 47.926C86.7279 47.842 86.4769 47.7579 86.2258 47.7158C85.9748 47.6738 85.7238 47.6318 85.5564 47.6318C84.2177 47.6318 83.5483 48.4726 83.5483 50.1962C83.5483 50.995 83.7156 51.6256 84.0503 52.046C84.385 52.4664 84.8452 52.6766 85.5146 52.6766C86.0585 52.6766 86.6024 52.5505 87.1881 52.3403V53.2231C86.686 53.4333 86.1422 53.5594 85.4728 53.5594Z" fill="#646464"/>
<path d="M92.7106 53.4332L92.5014 52.5084H92.4596C92.1249 52.9288 91.7902 53.181 91.4973 53.3492C91.1626 53.4753 90.7861 53.5594 90.284 53.5594C89.6147 53.5594 89.1126 53.3912 88.7361 53.0549C88.3596 52.7186 88.1922 52.2561 88.1922 51.6255C88.1922 50.2802 89.2381 49.6076 91.3718 49.5235L92.5014 49.4814V49.061C92.5014 48.5566 92.3759 48.1782 92.1667 47.926C91.9575 47.6737 91.581 47.5476 91.1208 47.5476C90.5769 47.5476 89.9493 47.7158 89.28 48.0521L88.9871 47.2954C89.3218 47.1272 89.6565 47.0011 90.033 46.8749C90.4096 46.7488 90.7861 46.7068 91.2045 46.7068C91.9994 46.7068 92.5851 46.8749 92.9616 47.2113C93.3381 47.5476 93.5473 48.1362 93.5473 48.8929V53.3912H92.7106V53.4332ZM90.4514 52.7186C91.0789 52.7186 91.5392 52.5504 91.9157 52.2141C92.2504 51.8777 92.4596 51.4153 92.4596 50.7847V50.1961L91.4555 50.2382C90.6606 50.2802 90.1167 50.4063 89.7402 50.6165C89.3636 50.8267 89.1963 51.1631 89.1963 51.6255C89.1963 52.0039 89.3218 52.2561 89.531 52.4663C89.7402 52.6765 90.0749 52.7186 90.4514 52.7186Z" fill="#646464"/>
<path d="M98.9025 52.4663L99.0698 51.9198L99.3208 51.2051L101.078 46.8749H102.333V53.4332H101.455V48.01L101.329 48.3463L100.994 49.2712L99.3208 53.4332H98.4841L96.8106 49.2292C96.6014 48.6827 96.4341 48.2623 96.3922 47.968V53.3912H95.5137V46.8329H96.7269L98.4423 50.9949C98.6096 51.4573 98.7351 51.9618 98.9025 52.4663Z" fill="#646464"/>
<path d="M108.525 53.4332L108.316 52.5084H108.274C107.939 52.9288 107.605 53.181 107.312 53.3492C106.977 53.4753 106.6 53.5594 106.098 53.5594C105.429 53.5594 104.927 53.3912 104.55 53.0549C104.174 52.7186 104.007 52.2561 104.007 51.6255C104.007 50.2802 105.053 49.6076 107.186 49.5235L108.316 49.4814V49.061C108.316 48.5566 108.19 48.1782 107.981 47.926C107.772 47.6737 107.395 47.5476 106.935 47.5476C106.391 47.5476 105.764 47.7158 105.094 48.0521L104.801 47.2954C105.136 47.1272 105.471 47.0011 105.847 46.8749C106.224 46.7488 106.6 46.7068 107.019 46.7068C107.814 46.7068 108.399 46.8749 108.776 47.2113C109.153 47.5476 109.362 48.1362 109.362 48.8929V53.3912H108.525V53.4332ZM106.266 52.7186C106.893 52.7186 107.354 52.5504 107.73 52.2141C108.065 51.8777 108.274 51.4153 108.274 50.7847V50.1961L107.27 50.2382C106.475 50.2802 105.931 50.4063 105.555 50.6165C105.178 50.8267 105.011 51.1631 105.011 51.6255C105.011 52.0039 105.136 52.2561 105.345 52.4663C105.555 52.6765 105.889 52.7186 106.266 52.7186Z" fill="#646464"/>
<path d="M111.621 53.4332H110.449L112.332 50.6586C111.83 50.5324 111.454 50.3222 111.161 49.9859C110.91 49.6496 110.742 49.2712 110.742 48.7667C110.742 48.1782 110.952 47.6737 111.328 47.3374C111.746 47.001 112.29 46.8329 113.002 46.8329H115.93V53.4332H114.926V50.7847H113.253L111.621 53.4332ZM111.746 48.7667C111.746 49.5235 112.29 49.9018 113.378 49.9018H114.968V47.6737H113.169C112.248 47.7157 111.746 48.0521 111.746 48.7667Z" fill="#646464"/>
<path d="M122.289 53.4332H121.285V46.8329H126.808V53.4332H125.804V47.7157H122.289V53.4332Z" fill="#646464"/>
<path d="M134.548 50.1121C134.548 51.2052 134.296 52.0039 133.753 52.6346C133.209 53.2652 132.456 53.5594 131.535 53.5594C130.95 53.5594 130.447 53.4333 129.987 53.139C129.527 52.8448 129.192 52.4664 128.941 51.9619C128.69 51.4574 128.565 50.8268 128.565 50.1542C128.565 49.0611 128.816 48.2624 129.36 47.6318C129.904 47.0432 130.657 46.7489 131.577 46.7489C132.497 46.7489 133.209 47.0432 133.753 47.6738C134.296 48.2624 134.548 49.0611 134.548 50.1121ZM129.569 50.1121C129.569 50.9529 129.736 51.5835 130.071 52.046C130.406 52.5084 130.908 52.7186 131.535 52.7186C132.163 52.7186 132.665 52.5084 133 52.046C133.334 51.5835 133.502 50.9529 133.502 50.1121C133.502 49.2713 133.334 48.6407 133 48.2203C132.665 47.7999 132.163 47.5477 131.493 47.5477C130.824 47.5477 130.364 47.7579 130.029 48.1783C129.736 48.6407 129.569 49.2713 129.569 50.1121Z" fill="#646464"/>
<path d="M141.2 53.4332H140.196V47.7157H138.229C138.104 49.1451 137.978 50.2802 137.769 51.121C137.56 51.9618 137.309 52.5924 137.016 52.9708C136.723 53.3491 136.305 53.5593 135.845 53.5593C135.635 53.5593 135.468 53.5173 135.342 53.4753V52.7185C135.426 52.7606 135.51 52.7606 135.635 52.7606C136.096 52.7606 136.472 52.2561 136.723 51.2892C136.974 50.3222 137.183 48.8508 137.351 46.8329H141.2V53.4332Z" fill="#646464"/>
<path d="M144.296 46.8329V49.6075H147.977V46.8329H148.981V53.4332H147.977V50.4484H144.296V53.4332H143.291V46.8329H144.296Z" fill="#646464"/>
<path d="M155.089 53.4332L154.88 52.5084H154.838C154.504 52.9288 154.169 53.181 153.876 53.3492C153.541 53.4753 153.165 53.5594 152.663 53.5594C151.993 53.5594 151.491 53.3912 151.115 53.0549C150.738 52.7186 150.571 52.2561 150.571 51.6255C150.571 50.2802 151.617 49.6076 153.751 49.5235L154.88 49.4814V49.061C154.88 48.5566 154.755 48.1782 154.546 47.926C154.336 47.6737 153.96 47.5476 153.5 47.5476C152.956 47.5476 152.328 47.7158 151.659 48.0521L151.366 47.2954C151.701 47.1272 152.035 47.0011 152.412 46.8749C152.788 46.7488 153.165 46.7068 153.583 46.7068C154.378 46.7068 154.964 46.8749 155.34 47.2113C155.717 47.5476 155.926 48.1362 155.926 48.8929V53.3912H155.089V53.4332ZM152.83 52.7186C153.458 52.7186 153.918 52.5504 154.295 52.2141C154.629 51.8777 154.838 51.4153 154.838 50.7847V50.1961L153.834 50.2382C153.039 50.2802 152.496 50.4063 152.119 50.6165C151.742 50.8267 151.575 51.1631 151.575 51.6255C151.575 52.0039 151.701 52.2561 151.91 52.4663C152.119 52.6765 152.454 52.7186 152.83 52.7186Z" fill="#646464"/>
<path d="M158.185 53.4332H157.014L158.897 50.6586C158.395 50.5324 158.018 50.3222 157.725 49.9859C157.474 49.6496 157.307 49.2712 157.307 48.7667C157.307 48.1782 157.516 47.6737 157.892 47.3374C158.311 47.001 158.855 46.8329 159.566 46.8329H162.495V53.4332H161.49V50.7847H159.817L158.185 53.4332ZM158.311 48.7667C158.311 49.5235 158.855 49.9018 159.942 49.9018H161.532V47.6737H159.733C158.813 47.7157 158.311 48.0521 158.311 48.7667Z" fill="#646464"/>
<path d="M167.515 49.4815C167.515 48.0521 167.724 46.917 168.143 46.1183C168.561 45.3195 169.23 44.815 170.151 44.6048C171.28 44.3526 172.284 44.1424 173.163 44.0162L173.33 44.8991C171.95 45.1513 170.946 45.3195 170.36 45.4456C169.774 45.5717 169.356 45.9081 169.063 46.3705C168.77 46.875 168.603 47.5476 168.603 48.3884H168.686C168.937 48.0521 169.272 47.7999 169.649 47.5897C170.025 47.3795 170.444 47.2954 170.862 47.2954C171.657 47.2954 172.284 47.5476 172.745 48.0942C173.205 48.5986 173.414 49.3554 173.414 50.2802C173.414 51.3313 173.163 52.13 172.619 52.6766C172.117 53.2651 171.364 53.5594 170.444 53.5594C169.523 53.5594 168.812 53.2231 168.268 52.5084C167.766 51.7517 167.515 50.7847 167.515 49.4815ZM170.569 52.7186C171.782 52.7186 172.41 51.9198 172.41 50.3643C172.41 48.8929 171.866 48.1362 170.736 48.1362C170.444 48.1362 170.151 48.2203 169.858 48.3464C169.565 48.4725 169.314 48.6407 169.105 48.8509C168.854 49.0611 168.686 49.2713 168.561 49.4815C168.561 50.5325 168.728 51.3313 169.063 51.8778C169.356 52.4243 169.858 52.7186 170.569 52.7186Z" fill="#646464"/>
<path d="M179.188 53.4332L178.978 52.5084H178.937C178.602 52.9288 178.267 53.181 177.974 53.3492C177.64 53.4753 177.263 53.5594 176.761 53.5594C176.092 53.5594 175.59 53.3912 175.213 53.0549C174.837 52.7186 174.669 52.2561 174.669 51.6255C174.669 50.2802 175.715 49.6076 177.849 49.5235L178.978 49.4814V49.061C178.978 48.5566 178.853 48.1782 178.644 47.926C178.435 47.6737 178.058 47.5476 177.598 47.5476C177.054 47.5476 176.426 47.7158 175.757 48.0521L175.464 47.2954C175.799 47.1272 176.133 47.0011 176.51 46.8749C176.887 46.7488 177.263 46.7068 177.681 46.7068C178.476 46.7068 179.062 46.8749 179.439 47.2113C179.815 47.5476 180.024 48.1362 180.024 48.8929V53.3912H179.188V53.4332ZM176.97 52.7186C177.598 52.7186 178.058 52.5504 178.435 52.2141C178.769 51.8777 178.978 51.4153 178.978 50.7847V50.1961L177.974 50.2382C177.179 50.2802 176.636 50.4063 176.259 50.6165C175.882 50.8267 175.715 51.1631 175.715 51.6255C175.715 52.0039 175.841 52.2561 176.05 52.4663C176.259 52.6765 176.552 52.7186 176.97 52.7186Z" fill="#646464"/>
<path d="M183.246 49.5655C184.501 49.5655 185.087 49.2292 185.087 48.5145C185.087 47.8839 184.585 47.5476 183.58 47.5476C183.288 47.5476 182.995 47.5896 182.744 47.6317C182.493 47.6737 182.158 47.7998 181.74 47.968L181.405 47.1692C182.074 46.8749 182.827 46.7068 183.622 46.7068C184.375 46.7068 184.961 46.8749 185.421 47.1692C185.84 47.4635 186.091 47.8839 186.091 48.4304C186.091 49.1872 185.672 49.6496 184.877 49.8598V49.9019C185.379 50.07 185.756 50.2802 185.965 50.5325C186.216 50.8267 186.3 51.1631 186.3 51.5835C186.3 52.172 186.049 52.6765 185.547 53.0128C185.045 53.3492 184.375 53.5173 183.539 53.5173C182.576 53.5173 181.865 53.3912 181.363 53.0969V52.172C182.074 52.5084 182.827 52.6765 183.58 52.6765C184.166 52.6765 184.585 52.5924 184.877 52.3822C185.17 52.172 185.338 51.8778 185.338 51.5414C185.338 50.7847 184.71 50.4063 183.497 50.4063H182.576V49.5655H183.246Z" fill="#646464"/>
<path d="M191.906 53.4332L191.697 52.5084H191.655C191.32 52.9288 190.986 53.181 190.693 53.3492C190.358 53.4753 189.981 53.5594 189.479 53.5594C188.81 53.5594 188.308 53.3912 187.931 53.0549C187.555 52.7186 187.388 52.2561 187.388 51.6255C187.388 50.2802 188.433 49.6076 190.567 49.5235L191.697 49.4814V49.061C191.697 48.5566 191.571 48.1782 191.362 47.926C191.153 47.6737 190.776 47.5476 190.316 47.5476C189.772 47.5476 189.145 47.7158 188.475 48.0521L188.182 47.2954C188.517 47.1272 188.852 47.0011 189.228 46.8749C189.605 46.7488 189.981 46.7068 190.4 46.7068C191.195 46.7068 191.78 46.8749 192.157 47.2113C192.534 47.5476 192.743 48.1362 192.743 48.8929V53.3912H191.906V53.4332ZM189.689 52.7186C190.316 52.7186 190.776 52.5504 191.153 52.2141C191.488 51.8777 191.697 51.4153 191.697 50.7847V50.1961L190.693 50.2382C189.898 50.2802 189.354 50.4063 188.977 50.6165C188.601 50.8267 188.433 51.1631 188.433 51.6255C188.433 52.0039 188.559 52.2561 188.768 52.4663C188.977 52.6765 189.312 52.7186 189.689 52.7186Z" fill="#646464"/>
<path d="M91.2882 63.3968C91.2882 64.4899 91.0371 65.3307 90.5351 65.9193C90.033 66.5078 89.3218 66.8021 88.4432 66.8021C87.6065 66.8021 86.9371 66.5499 86.4351 66.0033C85.933 65.4568 85.6402 64.7001 85.5983 63.7332H83.883V66.718H82.8371V60.1177H83.8412V62.8924H85.5565C85.6402 61.9675 85.933 61.2528 86.4351 60.7483C86.9371 60.2438 87.6065 59.9916 88.4432 59.9916C89.3218 59.9916 90.033 60.2859 90.5351 60.9165C91.0371 61.505 91.2882 62.3458 91.2882 63.3968ZM86.6024 63.3968C86.6024 64.2377 86.7279 64.8683 87.0208 65.3307C87.3136 65.7931 87.7739 66.0033 88.4014 66.0033C89.029 66.0033 89.4892 65.7931 89.782 65.3727C90.0749 64.9523 90.2422 64.2797 90.2422 63.4389C90.2422 62.5981 90.1167 61.9675 89.8239 61.5471C89.531 61.1267 89.0708 60.9165 88.4432 60.9165C87.8157 60.9165 87.3555 61.1267 87.0626 61.5471C86.7279 61.8834 86.6024 62.556 86.6024 63.3968Z" fill="#646464"/>
<path d="M96.0994 66.8021C95.681 66.8021 95.2626 66.718 94.9279 66.5498C94.5933 66.3817 94.2586 66.1294 94.0494 65.8352H93.9657C94.0075 66.2135 94.0494 66.5919 94.0494 66.9282V69.6188H93.0453V60.0756H93.8402L93.9657 60.9585H94.0075C94.2586 60.5801 94.5514 60.3279 94.8861 60.1597C95.2208 59.9916 95.5973 59.9075 96.0575 59.9075C96.9361 59.9075 97.6055 60.2018 98.0657 60.7903C98.5259 61.3789 98.7769 62.2197 98.7769 63.3127C98.7769 64.4058 98.5259 65.2466 98.0657 65.8352C97.6055 66.5078 96.9361 66.8021 96.0994 66.8021ZM95.932 60.8324C95.2626 60.8324 94.7606 61.0005 94.4677 61.3789C94.1749 61.7572 94.0075 62.3458 94.0075 63.1446V63.3548C94.0075 64.2797 94.1749 64.9523 94.4677 65.3307C94.7606 65.709 95.2626 65.9192 95.932 65.9192C96.5178 65.9192 96.9361 65.709 97.2708 65.2466C97.6055 64.7842 97.7729 64.1535 97.7729 63.3548C97.7729 62.514 97.6055 61.8834 97.2708 61.463C96.978 61.0426 96.5178 60.8324 95.932 60.8324Z" fill="#646464"/>
<path d="M100.409 66.0454C100.409 65.7932 100.45 65.583 100.576 65.4148C100.701 65.2887 100.869 65.2046 101.12 65.2046C101.371 65.2046 101.538 65.2887 101.664 65.4148C101.789 65.5409 101.873 65.7511 101.873 66.0454C101.873 66.2976 101.789 66.5078 101.664 66.634C101.538 66.7601 101.371 66.8442 101.12 66.8442C100.911 66.8442 100.743 66.7601 100.618 66.634C100.45 66.5499 100.409 66.3397 100.409 66.0454Z" fill="#646464"/>
<path d="M110.993 66.6759L110.784 65.751H110.742C110.408 66.1714 110.073 66.4237 109.78 66.5918C109.445 66.718 109.069 66.802 108.567 66.802C107.897 66.802 107.395 66.6339 107.019 66.2976C106.642 65.9612 106.475 65.4988 106.475 64.8682C106.475 63.5229 107.521 62.8502 109.655 62.7662L110.784 62.7241V62.3037C110.784 61.7992 110.659 61.4209 110.449 61.1686C110.24 60.9164 109.864 60.7903 109.404 60.7903C108.86 60.7903 108.232 60.9584 107.563 61.2948L107.27 60.538C107.605 60.3699 107.939 60.2437 108.316 60.1176C108.692 59.9915 109.069 59.9495 109.487 59.9495C110.282 59.9495 110.868 60.1176 111.244 60.4539C111.621 60.7903 111.83 61.3788 111.83 62.1356V66.6339H110.993V66.6759ZM108.776 65.9612C109.404 65.9612 109.864 65.7931 110.24 65.4567C110.575 65.1204 110.784 64.658 110.784 64.0274V63.4388L109.78 63.4809C108.985 63.5229 108.441 63.649 108.065 63.8592C107.688 64.0694 107.521 64.4057 107.521 64.8682C107.521 65.2465 107.646 65.4988 107.856 65.709C108.065 65.9192 108.358 65.9612 108.776 65.9612Z" fill="#646464"/>
<path d="M119.486 68.9462H118.524V66.676H113.922V68.9462H112.96V65.7932H113.462C114.006 65.0785 114.424 64.1956 114.717 63.2287C115.01 62.2618 115.177 61.2108 115.177 60.0757H118.482V65.7932H119.403V68.9462H119.486ZM117.604 65.8352V60.8745H116.139C116.097 61.7573 115.93 62.6822 115.637 63.565C115.344 64.4899 114.968 65.2046 114.549 65.7932H117.604V65.8352Z" fill="#646464"/>
<path d="M123.837 66.8021C123.419 66.8021 123.001 66.718 122.666 66.5498C122.331 66.3817 121.996 66.1294 121.787 65.8352H121.704C121.745 66.2135 121.787 66.5919 121.787 66.9282V69.6188H120.783V60.0756H121.578L121.704 60.9585H121.745C121.996 60.5801 122.289 60.3279 122.624 60.1597C122.959 59.9916 123.335 59.9075 123.795 59.9075C124.674 59.9075 125.343 60.2018 125.804 60.7903C126.264 61.3789 126.515 62.2197 126.515 63.3127C126.515 64.4058 126.264 65.2466 125.804 65.8352C125.385 66.5078 124.716 66.8021 123.837 66.8021ZM123.712 60.8324C123.042 60.8324 122.54 61.0005 122.248 61.3789C121.955 61.7572 121.787 62.3458 121.787 63.1446V63.3548C121.787 64.2797 121.955 64.9523 122.248 65.3307C122.54 65.709 123.042 65.9192 123.712 65.9192C124.298 65.9192 124.716 65.709 125.051 65.2466C125.385 64.7842 125.553 64.1535 125.553 63.3548C125.553 62.514 125.385 61.8834 125.051 61.463C124.758 61.0426 124.298 60.8324 123.712 60.8324Z" fill="#646464"/>
<path d="M131.075 66.8021C130.113 66.8021 129.36 66.5078 128.774 65.9193C128.188 65.3307 127.937 64.4899 127.937 63.4389C127.937 62.3879 128.188 61.5471 128.732 60.9165C129.276 60.2859 129.945 59.9916 130.824 59.9916C131.661 59.9916 132.288 60.2438 132.79 60.7903C133.251 61.3369 133.502 62.0516 133.502 62.9344V63.565H128.983C128.983 64.3217 129.192 64.9103 129.569 65.3307C129.945 65.7511 130.447 65.9193 131.117 65.9193C131.828 65.9193 132.539 65.7511 133.209 65.4568V66.3397C132.874 66.5078 132.539 66.5919 132.205 66.676C131.912 66.7601 131.535 66.8021 131.075 66.8021ZM130.824 60.7903C130.28 60.7903 129.862 60.9585 129.569 61.2948C129.276 61.6312 129.067 62.1356 129.025 62.7242H132.456C132.456 62.0936 132.33 61.6312 132.037 61.2948C131.744 60.9585 131.326 60.7903 130.824 60.7903Z" fill="#646464"/>
<path d="M137.811 66.8021C136.849 66.8021 136.137 66.5078 135.593 65.9193C135.05 65.3307 134.799 64.4899 134.799 63.4389C134.799 62.3458 135.05 61.505 135.593 60.8744C136.137 60.2859 136.89 59.9916 137.853 59.9916C138.187 59.9916 138.48 60.0336 138.815 60.0757C139.15 60.1177 139.359 60.2438 139.568 60.3279L139.275 61.1687C139.066 61.0846 138.815 61.0005 138.564 60.9585C138.313 60.9165 138.062 60.8744 137.894 60.8744C136.556 60.8744 135.886 61.7152 135.886 63.4389C135.886 64.2377 136.054 64.8683 136.388 65.2887C136.723 65.7091 137.183 65.9193 137.853 65.9193C138.396 65.9193 138.94 65.7931 139.526 65.5829V66.4658C139.024 66.676 138.48 66.8021 137.811 66.8021Z" fill="#646464"/>
<path d="M146.68 63.3968C146.68 64.4898 146.429 65.2886 145.885 65.9192C145.341 66.5498 144.588 66.8441 143.668 66.8441C143.082 66.8441 142.58 66.718 142.12 66.4237C141.66 66.1294 141.325 65.7511 141.074 65.2466C140.823 64.7421 140.698 64.1115 140.698 63.4388C140.698 62.3458 140.949 61.547 141.492 60.9164C142.036 60.3278 142.789 60.0336 143.71 60.0336C144.63 60.0336 145.341 60.3279 145.885 60.9585C146.387 61.505 146.68 62.3458 146.68 63.3968ZM141.66 63.3968C141.66 64.2376 141.827 64.8682 142.162 65.3307C142.496 65.7931 142.999 66.0033 143.626 66.0033C144.254 66.0033 144.756 65.7931 145.09 65.3307C145.425 64.8682 145.592 64.2376 145.592 63.3968C145.592 62.556 145.425 61.9254 145.09 61.505C144.756 61.0846 144.254 60.8323 143.584 60.8323C142.915 60.8323 142.455 61.0425 142.12 61.4629C141.827 61.8833 141.66 62.514 141.66 63.3968Z" fill="#646464"/>
<path d="M153.751 61.7573C153.751 62.1777 153.625 62.514 153.374 62.7242C153.123 62.9344 152.788 63.1026 152.328 63.1867V63.2287C152.872 63.3128 153.29 63.481 153.542 63.7332C153.793 63.9854 153.918 64.3218 153.918 64.7842C153.918 65.4148 153.709 65.8773 153.249 66.2136C152.788 66.5499 152.161 66.7181 151.282 66.7181H148.396V60.1177H151.282C152.914 60.0757 153.751 60.6222 153.751 61.7573ZM152.747 61.8414C152.747 61.5051 152.621 61.2949 152.37 61.1687C152.119 61.0426 151.743 60.9585 151.24 60.9585H149.358V62.8083H151.031C151.659 62.8083 152.077 62.7242 152.328 62.5981C152.579 62.472 152.747 62.1777 152.747 61.8414ZM152.956 64.7001C152.956 64.3638 152.83 64.0695 152.537 63.9014C152.286 63.7332 151.826 63.6491 151.199 63.6491H149.4V65.8352H151.24C152.37 65.8352 152.956 65.4569 152.956 64.7001Z" fill="#646464"/>
<path d="M163.875 61.7573C163.875 62.1777 163.75 62.514 163.499 62.7242C163.248 62.9344 162.913 63.1026 162.453 63.1867V63.2287C162.997 63.3128 163.415 63.481 163.666 63.7332C163.917 63.9854 164.043 64.3218 164.043 64.7842C164.043 65.4148 163.833 65.8773 163.373 66.2136C162.913 66.5499 162.285 66.7181 161.407 66.7181H158.562V60.1177H161.449C163.08 60.0757 163.875 60.6222 163.875 61.7573ZM162.913 61.8414C162.913 61.5051 162.787 61.2949 162.536 61.1687C162.285 61.0426 161.909 60.9585 161.407 60.9585H159.524V62.8083H161.198C161.825 62.8083 162.244 62.7242 162.495 62.5981C162.746 62.472 162.913 62.1777 162.913 61.8414ZM163.08 64.7001C163.08 64.3638 162.955 64.0695 162.662 63.9014C162.411 63.7332 161.951 63.6491 161.323 63.6491H159.524V65.8352H161.365C162.536 65.8352 163.08 65.4569 163.08 64.7001Z" fill="#646464"/>
<path d="M172.745 66.676L169.774 58.8985H169.732C169.774 59.5291 169.816 60.2438 169.816 61.0846V66.676H168.896V57.8895H170.444L173.205 65.1205H173.247L176.05 57.8895H177.556V66.676H176.552V61.0005C176.552 60.3699 176.594 59.6552 176.635 58.8985H176.552L173.581 66.676H172.745Z" fill="#646464"/>
<path d="M185.421 63.3968C185.421 64.4898 185.17 65.2886 184.626 65.9192C184.082 66.5498 183.329 66.8441 182.409 66.8441C181.823 66.8441 181.321 66.718 180.861 66.4237C180.401 66.1294 180.066 65.7511 179.815 65.2466C179.564 64.7421 179.439 64.1115 179.439 63.4388C179.439 62.3458 179.69 61.547 180.233 60.9164C180.777 60.3278 181.53 60.0336 182.451 60.0336C183.371 60.0336 184.082 60.3279 184.626 60.9585C185.17 61.505 185.421 62.3458 185.421 63.3968ZM180.443 63.3968C180.443 64.2376 180.61 64.8682 180.945 65.3307C181.279 65.7931 181.781 66.0033 182.409 66.0033C183.037 66.0033 183.539 65.7931 183.873 65.3307C184.208 64.8682 184.375 64.2376 184.375 63.3968C184.375 62.556 184.208 61.9254 183.873 61.505C183.539 61.0846 183.037 60.8323 182.367 60.8323C181.698 60.8323 181.238 61.0425 180.903 61.4629C180.61 61.8833 180.443 62.514 180.443 63.3968Z" fill="#646464"/>
<path d="M189.814 66.8021C188.852 66.8021 188.141 66.5078 187.597 65.9193C187.053 65.3307 186.802 64.4899 186.802 63.4389C186.802 62.3458 187.053 61.505 187.597 60.8744C188.141 60.2859 188.894 59.9916 189.856 59.9916C190.191 59.9916 190.484 60.0336 190.818 60.0757C191.153 60.1177 191.362 60.2438 191.571 60.3279L191.278 61.1687C191.069 61.0846 190.818 61.0005 190.567 60.9585C190.316 60.9165 190.065 60.8744 189.898 60.8744C188.559 60.8744 187.89 61.7152 187.89 63.4389C187.89 64.2377 188.057 64.8683 188.392 65.2887C188.726 65.7091 189.187 65.9193 189.856 65.9193C190.4 65.9193 190.944 65.7931 191.529 65.5829V66.4658C191.027 66.676 190.442 66.8021 189.814 66.8021Z" fill="#646464"/>
<path d="M196.843 60.0757H197.93L195.086 63.2708L198.14 66.676H196.968L193.998 63.3548V66.676H192.994V60.0757H193.998V63.2708L196.843 60.0757Z" fill="#646464"/>
<path d="M204.666 61.7573C204.666 62.1777 204.541 62.514 204.29 62.7242C204.039 62.9344 203.704 63.1026 203.244 63.1867V63.2287C203.788 63.3128 204.206 63.481 204.457 63.7332C204.708 63.9854 204.834 64.3218 204.834 64.7842C204.834 65.4148 204.624 65.8773 204.164 66.2136C203.704 66.5499 203.076 66.7181 202.198 66.7181H199.311V60.1177H202.198C203.871 60.0757 204.666 60.6222 204.666 61.7573ZM203.704 61.8414C203.704 61.5051 203.578 61.2949 203.327 61.1687C203.076 61.0426 202.7 60.9585 202.198 60.9585H200.315V62.8083H201.989C202.616 62.8083 203.035 62.7242 203.286 62.5981C203.537 62.472 203.704 62.1777 203.704 61.8414ZM203.913 64.7001C203.913 64.3638 203.788 64.0695 203.495 63.9014C203.244 63.7332 202.784 63.6491 202.156 63.6491H200.357V65.8352H202.198C203.327 65.8352 203.913 65.4569 203.913 64.7001Z" fill="#646464"/>
<path d="M209.101 66.8021C208.139 66.8021 207.386 66.5078 206.8 65.9193C206.214 65.3307 205.963 64.4899 205.963 63.4389C205.963 62.3879 206.214 61.5471 206.758 60.9165C207.302 60.2859 207.971 59.9916 208.85 59.9916C209.687 59.9916 210.314 60.2438 210.816 60.7903C211.276 61.3369 211.527 62.0516 211.527 62.9344V63.565H207.009C207.009 64.3217 207.218 64.9103 207.595 65.3307C207.971 65.7511 208.473 65.9193 209.143 65.9193C209.854 65.9193 210.565 65.7511 211.235 65.4568V66.3397C210.9 66.5078 210.565 66.5919 210.231 66.676C209.938 66.7601 209.561 66.8021 209.101 66.8021ZM208.85 60.7903C208.306 60.7903 207.888 60.9585 207.595 61.2948C207.302 61.6312 207.093 62.1356 207.051 62.7242H210.482C210.482 62.0936 210.356 61.6312 210.063 61.2948C209.77 60.9585 209.352 60.7903 208.85 60.7903Z" fill="#646464"/>
<defs>
<linearGradient id="paint0_linear" x1="37.3031" y1="74.6014" x2="37.3031" y2="0.849423" gradientUnits="userSpaceOnUse">
<stop stop-color="#A80532"/>
<stop offset="1" stop-color="#E2003E"/>
</linearGradient>
</defs>
</svg>
