<svg width="196" height="68" viewBox="0 0 196 68" fill="none" xmlns="http://www.w3.org/2000/svg">
<path d="M75.8981 27.4814V16.0845H79.7502V27.1383C79.7502 28.3962 80.3604 29.5016 82.3818 29.5016C84.4032 29.5016 85.0135 28.4343 85.0135 27.1383V16.0845H88.8656V27.4814C88.8656 31.0644 86.0814 33.237 82.3818 33.237C78.6823 33.237 75.8981 31.0644 75.8981 27.4814Z" fill="white"/>
<path d="M97.2944 27.3672H95.4637V32.8941H91.6116V16.0847H98.3242C101.528 16.0847 104.083 18.6385 104.083 21.8403C104.083 23.8986 102.825 25.7663 100.994 26.7192L104.579 32.8941H100.46L97.2944 27.3672ZM95.4637 24.0129H98.3623C99.4302 24.0129 100.269 23.06 100.269 21.8403C100.269 20.6205 99.3921 19.6676 98.3623 19.6676H95.4637V24.0129Z" fill="white"/>
<path d="M116.25 30.264H109.995L109.156 32.8941H104.961L110.682 16.0847H115.563L121.284 32.8941H117.089L116.25 30.264ZM115.106 26.6811L113.122 20.5062L111.139 26.6811H115.106Z" fill="white"/>
<path d="M137.646 24.5084C137.646 29.273 134.099 32.8941 129.484 32.8941H122.772V16.0847H129.484C134.099 16.0847 137.646 19.7438 137.646 24.5084ZM133.947 24.5084C133.947 21.6116 132.116 19.8201 129.484 19.8201H126.586V29.2349H129.484C132.116 29.1968 133.947 27.3672 133.947 24.5084Z" fill="white"/>
<path d="M145.465 27.3672H143.634V32.8941H139.782V16.0847H146.495C149.698 16.0847 152.254 18.6385 152.254 21.8403C152.254 23.8986 150.995 25.7663 149.164 26.7192L152.75 32.8941H148.63L145.465 27.3672ZM143.634 24.0129H146.533C147.601 24.0129 148.44 23.06 148.44 21.8403C148.44 20.6205 147.563 19.6676 146.533 19.6676H143.634V24.0129Z" fill="white"/>
<path d="M165.145 29.1968V32.8941H154.58V16.0847H165.031V19.782H158.432V22.5645H164.42V26.2237H158.432V29.1968H165.145Z" fill="white"/>
<path d="M166.48 29.0827L169.798 27.1769C170.408 28.5872 171.438 29.502 173.345 29.502C175.176 29.502 175.633 28.7778 175.633 28.1298C175.633 27.1007 174.68 26.6814 172.163 25.9953C169.645 25.3092 167.205 24.0894 167.205 20.8877C167.205 17.6477 169.951 15.78 172.849 15.78C175.595 15.78 177.769 17.1141 178.99 19.5917L175.748 21.4975C175.176 20.3159 174.375 19.5536 172.849 19.5536C171.667 19.5536 171.057 20.1634 171.057 20.8114C171.057 21.5738 171.476 22.1074 174.07 22.9078C176.625 23.6702 179.486 24.5468 179.486 28.1298C179.486 31.3697 176.892 33.2755 173.231 33.2755C169.645 33.2374 167.395 31.5603 166.48 29.0827Z" fill="white"/>
<path d="M190.966 30.264H184.711L183.872 32.8941H179.676L185.397 16.0847H190.279L196 32.8941H191.805L190.966 30.264ZM189.821 26.6811L187.838 20.5062L185.855 26.6811H189.821Z" fill="white"/>
<path d="M68.0031 0H0V67.9619H68.0031V0Z" fill="white"/>
<path d="M36.4234 17.8767H43.9751V16.7332H36.4234V17.8767ZM36.6904 34.343H44.2421V33.1996H36.6904V34.343ZM35.3937 52.9821H42.9453V51.8386H35.3937V52.9821ZM36.4234 15.704H43.9751V14.5605H36.4234V15.704ZM36.4234 13.5314H43.9751V12.3879H36.4234V13.5314ZM36.6904 38.574H44.2421V37.4305H36.6904V38.574ZM60.871 49.0561C60.871 48.6368 60.5277 48.2937 60.1082 48.2937C59.6124 48.2937 59.231 48.6749 59.231 49.1704V51.1144H60.871V49.0561ZM36.6904 42.8049H44.2421V41.6614H36.6904V42.8049ZM36.6904 40.6704H44.2421V39.5269H36.6904V40.6704ZM43.136 25.9193H35.5844V27.0628H43.136V25.9193ZM35.3937 48.7892H42.9453V47.6457H35.3937V48.7892ZM35.3937 46.6547H42.9453V45.5112H35.3937V46.6547ZM43.136 30.1502H35.5844V31.2937H43.136V30.1502ZM35.3937 50.8857H42.9453V49.7422H35.3937V50.8857ZM43.136 23.8229H35.5844V24.9664H43.136V23.8229ZM36.4234 20.0493H43.9751V18.9058H36.4234V20.0493ZM43.136 21.6883H35.5844V22.8318H43.136V21.6883ZM60.4133 56.9081C59.9556 56.9081 59.5742 57.2892 59.5742 57.7466V59.2713H61.138V57.6323C61.138 57.213 60.8328 56.9081 60.4133 56.9081ZM43.136 28.0157H35.5844V29.1592H43.136V28.0157ZM36.6904 36.4776H44.2421V35.3341H36.6904V36.4776ZM50.0012 48.2937C49.5053 48.2937 49.1239 48.6749 49.1239 49.1704V51.1144H50.764V49.0561C50.764 48.6368 50.4207 48.2937 50.0012 48.2937ZM60.4133 53.7444C59.9556 53.7444 59.5742 54.1256 59.5742 54.583V56.1076H61.138V54.4686C61.138 54.0493 60.8328 53.7444 60.4133 53.7444ZM58.43 57.5942C58.43 57.213 58.0868 56.87 57.7054 56.87C57.2477 56.87 56.8663 57.2511 56.8663 57.7085V59.2332H58.43V57.5942ZM55.7984 32.5135C55.7984 32.1323 55.4551 31.7892 55.0737 31.7892C54.6161 31.7892 54.2347 32.1704 54.2347 32.6278V35.2197H55.7984V32.5135ZM52.2133 41.5852C52.2133 43.1861 53.51 44.4439 55.0737 44.4439C56.6756 44.4439 57.9342 43.148 57.9342 41.5852C57.9342 39.9843 56.6375 38.7265 55.0737 38.7265C53.51 38.7265 52.2133 39.9843 52.2133 41.5852ZM65.8291 64.8744H67.3166V62.5874H65.8291V64.8744ZM65.8291 67.7332H67.3166V65.4462H65.8291V67.7332ZM49.5435 53.7444C49.0858 53.7444 48.7044 54.1256 48.7044 54.583V56.1076H50.2681V54.4686C50.2681 54.0493 49.9249 53.7444 49.5435 53.7444ZM63.8077 67.9619H64.4561V61.6726H68.0031V61.1009H63.8077V67.9619ZM49.5435 56.9081C49.0858 56.9081 48.7044 57.2892 48.7044 57.7466V59.2713H50.2681V57.6323C50.2681 57.213 49.9249 56.9081 49.5435 56.9081ZM51.4123 59.2713H52.9761V57.6323C52.9761 57.2511 52.6328 56.9081 52.2514 56.9081C51.7937 56.9081 51.4123 57.2892 51.4123 57.7466V59.2713ZM51.4123 54.583V56.1076H52.9761V54.4686C52.9761 54.0874 52.6328 53.7444 52.2514 53.7444C51.7937 53.7444 51.4123 54.0874 51.4123 54.583ZM57.5147 49.0561C57.5147 48.6368 57.1714 48.2937 56.7519 48.2937C56.2561 48.2937 55.8747 48.6749 55.8747 49.1704V51.1144H57.5147V49.0561ZM55.2263 60.3004C53.0905 60.3004 51.3361 62.0538 51.3361 64.1883V68H58.8496V63.9596C58.8496 61.9013 57.2096 60.3004 55.2263 60.3004ZM55.684 54.4686C55.684 54.0874 55.3407 53.7444 54.9593 53.7444C54.5016 53.7444 54.1202 54.1256 54.1202 54.583V56.1076H55.684V54.4686ZM58.43 54.4686C58.43 54.0874 58.0868 53.7444 57.7054 53.7444C57.2477 53.7444 56.8663 54.1256 56.8663 54.583V56.1076H58.43V54.4686ZM54.1202 49.0561C54.1202 48.6368 53.777 48.2937 53.3575 48.2937C52.8616 48.2937 52.4802 48.6749 52.4802 49.1704V51.1144H54.1202V49.0561ZM55.684 57.5942C55.684 57.213 55.3407 56.87 54.9593 56.87C54.5016 56.87 54.1202 57.2511 54.1202 57.7085V59.2332H55.684V57.5942ZM18.0019 62.435H24.562V61.4439H18.0019V62.435ZM7.43724 29.4641H10.4503V25.1188H7.43724V29.4641ZM11.4419 44.4439H14.455V37.6211H11.4419V44.4439ZM7.43724 44.4439H10.4503V37.6211H7.43724V44.4439ZM7.43724 37.0112H10.4503V30.1883H7.43724V37.0112ZM11.4419 51.8767H14.455V45.0538H11.4419V51.8767ZM24.562 43.7197H18.0019V44.7108H24.562V43.7197ZM24.562 45.5493H18.0019V46.5404H24.562V45.5493ZM11.4419 29.4641H14.455V25.1188H11.4419V29.4641ZM18.0019 60.6054H24.562V59.6143H18.0019V60.6054ZM0 0V58.509H4.15723V57.2511H3.66141V56.7175H4.15723C3.96653 56.5269 3.85211 56.2601 3.85211 55.9552C3.85211 55.3453 4.34793 54.8498 4.95816 54.8498C5.5684 54.8498 6.06421 55.3453 6.06421 55.9552C6.06421 56.2601 5.94979 56.5269 5.7591 56.7175H6.36933V57.2511H5.87352V58.509H13.8066V63.426H12.8912V62.5112H11.0987V63.426H10.374V62.5112H8.58143V64.6457H10.0307V65.4081H8.58143V67.5426H10.0307V68H10.8698V64.0359H41.4197V67.9619H42.1825V63.426H38.8262V56.4126H39.3983V53.7444H40.7714V56.4126H41.496V53.7444H42.869V56.4126H43.5937V53.7444H44.9667V56.4126H45.6914V53.7444H47.0644V56.4126H47.9416V52.7915H47.2932V51.8004H47.7891V47.4933H47.5221V46.5022H47.6365L48.4756 42.0807L49.5435 46.5022H50.6114V39.7937H51.0309V36.935H50.7258V35.9821H51.3361V29.9596H52.7091L54.9212 18.7534L53.8533 19.5538L54.3491 18.0673L53.0905 17.1525H54.6542L55.15 15.6659L55.6458 17.1525H57.2096L55.951 18.0673L56.4468 19.5538L55.4551 18.8296L57.3621 29.9596H58.5445V35.9821H59.3072V36.935H59.1166V39.7937H59.4217V46.5022H60.4514L61.2905 42.0807L62.3584 46.5022H62.4347V47.4933H62.0914V51.8004H62.778V52.7915H62.1296V56.4126H63.2356V53.7444H64.6087V56.4126H65.3333V53.7444H66.7064V56.4126H67.431V53.7444H68.1938V0H0ZM15.9424 63.426H14.4931V57.861H14.455V52.5247H11.4419V57.861H10.4503V52.5247H7.43724V57.861H7.05585V56.0695H6.75073C6.75073 56.0314 6.75073 55.9933 6.75073 55.9933C6.75073 55.3453 6.40747 54.7735 5.87352 54.4686V24.509H7.3991V22.222H14.5694V24.509H15.9805V63.426H15.9424ZM26.6978 37.4305H25.5536V47.6457H26.6978V58.8139H25.5536V63.426H24.562V63.2735H18.0019V63.426H17.1247V58.5471H18.2689V47.9888H17.1247V37.278H18.2689V27.4439H17.1247V18.8296H18.2689V17.5717H24.7527V18.8296H25.5536V27.3296H26.6978V37.4305ZM32.8383 28.0919H32.5713V30.1883H31.7322V33.7713H31.2746V41.852H32.4188V43.9865H31.5415V49.5516H32.0374V63.426H28.6048V49.5516H29.0625V43.9484H28.1852V41.8139H29.482V38.1166H29.5583V33.7713H28.948V30.1883H28.0708V28.0919H27.8038V24.509H29.215V21.9552H29.8253V18.2578H29.1769V17.3812H29.9015V11.7018H29.2532V10.787H30.1685V6.51794H30.6262V10.787H31.5034V11.7018H30.7787V17.3812H31.5034V18.2578H30.7787V21.9552H31.2746V24.509H32.8764V28.0919H32.8383ZM45.2718 20.7735H43.9369V32.0942H45.2718V44.4439H43.9369V53.0583H38.7499V53.935H35.3937V55.0785H38.7499V55.6883H38.1778V57.7848H36.6523V58.9283H38.1778V59.8812H36.6523V61.0247H38.1778V61.9776H36.6523V63.1211H38.1778V63.3498H35.5462V56.8318H34.2113V43.9865H35.5462V32.3229H34.2113V20.6592H35.5462V10.8632H36.4616V9.45291H43.8988V10.8632H45.2337V20.7735H45.2718ZM15.5991 67.9619H20.748V67.3139H15.5991V67.9619ZM32.6857 67.9619H37.3769V67.3139H32.6857V67.9619ZM32.6857 66.8946H37.3769V65.2175H32.6857V66.8946ZM15.5991 66.8946H20.748V65.2175H15.5991V66.8946ZM24.562 41.8901H18.0019V42.8812H24.562V41.8901ZM7.43724 51.8767H10.4503V45.0538H7.43724V51.8767ZM24.1424 67.9619H28.8336V67.3139H24.1424V67.9619ZM24.1424 66.8946H28.8336V65.2175H24.1424V66.8946ZM11.4419 37.0112H14.455V30.1883H11.4419V37.0112ZM25.5155 30.074H18.9554V31.065H25.5155V30.074ZM25.5155 31.9036H18.9554V32.8946H25.5155V31.9036ZM25.5155 33.7332H18.9554V34.7242H25.5155V33.7332ZM19.108 49.9327H25.668V48.9417H19.108V49.9327ZM19.108 51.7623H25.668V50.7713H19.108V51.7623ZM19.108 55.4215H25.668V54.4305H19.108V55.4215ZM24.562 40.0605H18.0019V41.0516H24.562V40.0605ZM19.108 57.2511H25.668V56.2601H19.108V57.2511ZM19.108 53.5919H25.668V52.6009H19.108V53.5919ZM18.9554 36.5538H25.5155V35.5628H18.9554V36.5538ZM24.7908 25.8049H18.2308V26.796H24.7908V25.8049ZM24.7908 23.8991H18.2308V24.8901H24.7908V23.8991ZM24.562 38.2309H18.0019V39.222H24.562V38.2309ZM25.5155 28.2444H18.9554V29.2354H25.5155V28.2444ZM24.7908 22.0314H18.2308V23.0224H24.7908V22.0314ZM24.7908 20.1256H18.2308V21.1166H24.7908V20.1256Z" fill="url(#paint0_linear)"/>
<path d="M77.9195 48.56C77.0422 48.56 76.3939 48.2932 75.8981 47.7596C75.4022 47.2259 75.1734 46.4636 75.1734 45.5107C75.1734 44.5197 75.4022 43.7573 75.8981 43.1856C76.3939 42.6519 77.0804 42.3851 77.9576 42.3851C78.2627 42.3851 78.5297 42.4232 78.8348 42.4614C79.1399 42.4995 79.3306 42.6138 79.5213 42.6901L79.2544 43.4524C79.0637 43.3762 78.8348 43.2999 78.606 43.2618C78.3771 43.2237 78.1483 43.1856 77.9957 43.1856C76.7753 43.1856 76.165 43.9479 76.165 45.5107C76.165 46.2349 76.3176 46.8067 76.6227 47.1878C76.9278 47.569 77.3474 47.7596 77.9576 47.7596C78.4534 47.7596 78.9492 47.6452 79.4832 47.4546V48.2551C79.0255 48.4457 78.5297 48.56 77.9195 48.56Z" fill="white"/>
<path d="M84.5177 48.4462L84.327 47.6076H84.2888C83.9837 47.9888 83.6786 48.2175 83.4116 48.37C83.1065 48.4843 82.7632 48.5605 82.3055 48.5605C81.6953 48.5605 81.2376 48.4081 80.8944 48.1031C80.5511 47.7982 80.3986 47.3789 80.3986 46.8072C80.3986 45.5874 81.3521 44.9776 83.2972 44.9013L84.327 44.8632V44.4821C84.327 44.0247 84.2125 43.6816 84.0218 43.4529C83.8311 43.2242 83.4879 43.1099 83.0683 43.1099C82.5725 43.1099 82.0004 43.2623 81.3902 43.5673L81.1232 42.8812C81.4283 42.7287 81.7334 42.6144 82.0767 42.5C82.42 42.3857 82.7632 42.3475 83.1446 42.3475C83.8693 42.3475 84.4032 42.5 84.7465 42.8049C85.0897 43.1099 85.2804 43.6435 85.2804 44.3296V48.4081H84.5177V48.4462ZM82.4581 47.7982C83.0302 47.7982 83.4497 47.6457 83.793 47.3408C84.0981 47.0359 84.2888 46.6166 84.2888 46.0448V45.5112L83.3735 45.5493C82.6488 45.5874 82.153 45.7018 81.8097 45.8924C81.4665 46.083 81.3139 46.3879 81.3139 46.8072C81.3139 47.1502 81.4283 47.3789 81.619 47.5695C81.8097 47.7601 82.1148 47.7982 82.4581 47.7982Z" fill="white"/>
<path d="M90.1623 47.569L90.3149 47.0735L90.5437 46.4255L92.1456 42.4995H93.2898V48.4457H92.4888V43.5286L92.3744 43.8336L92.0693 44.6721L90.5437 48.4457H89.7809L88.2553 44.634C88.0646 44.1385 87.9121 43.7573 87.8739 43.4905V48.4076H87.073V42.4614H88.179L89.7428 46.2349C89.8953 46.6542 90.0098 47.1116 90.1623 47.569Z" fill="white"/>
<path d="M98.9345 48.4462L98.7438 47.6076H98.7056C98.4005 47.9888 98.0954 48.2175 97.8284 48.37C97.5233 48.4843 97.18 48.5605 96.7224 48.5605C96.1121 48.5605 95.6544 48.4081 95.3112 48.1031C94.9679 47.7982 94.8154 47.3789 94.8154 46.8072C94.8154 45.5874 95.7689 44.9776 97.714 44.9013L98.7438 44.8632V44.4821C98.7438 44.0247 98.6293 43.6816 98.4386 43.4529C98.2479 43.2242 97.9047 43.1099 97.4852 43.1099C96.9893 43.1099 96.4172 43.2623 95.807 43.5673L95.54 42.8812C95.8451 42.7287 96.1503 42.6144 96.4935 42.5C96.8368 42.3857 97.18 42.3475 97.5614 42.3475C98.2861 42.3475 98.82 42.5 99.1633 42.8049C99.5066 43.1099 99.6972 43.6435 99.6972 44.3296V48.4081H98.9345V48.4462ZM96.8749 47.7982C97.447 47.7982 97.8665 47.6457 98.2098 47.3408C98.5149 47.0359 98.7056 46.6166 98.7056 46.0448V45.5112L97.7903 45.5493C97.0656 45.5874 96.5698 45.7018 96.2265 45.8924C95.8833 46.083 95.7307 46.3879 95.7307 46.8072C95.7307 47.1502 95.8451 47.3789 96.0358 47.5695C96.2265 47.7601 96.5317 47.7982 96.8749 47.7982Z" fill="white"/>
<path d="M101.757 48.4457H100.689L102.405 45.93C101.948 45.8156 101.604 45.625 101.337 45.3201C101.108 45.0152 100.956 44.6721 100.956 44.2147C100.956 43.6811 101.147 43.2237 101.49 42.9188C101.871 42.6138 102.367 42.4614 103.015 42.4614H105.685V48.4457H104.77V46.0443H103.244L101.757 48.4457ZM101.871 44.2147C101.871 44.9008 102.367 45.2439 103.359 45.2439H104.808V43.2237H103.168C102.329 43.2618 101.871 43.5667 101.871 44.2147Z" fill="white"/>
<path d="M111.482 48.4457H110.567V42.4614H115.602V48.4457H114.686V43.2618H111.482V48.4457Z" fill="white"/>
<path d="M122.657 45.4348C122.657 46.4259 122.429 47.1501 121.933 47.7218C121.437 48.2936 120.75 48.5604 119.911 48.5604C119.377 48.5604 118.92 48.446 118.5 48.1792C118.081 47.9124 117.775 47.5694 117.547 47.112C117.318 46.6546 117.203 46.0828 117.203 45.4729C117.203 44.4819 117.432 43.7577 117.928 43.1859C118.424 42.6523 119.11 42.3855 119.949 42.3855C120.789 42.3855 121.437 42.6523 121.933 43.2241C122.429 43.7577 122.657 44.4819 122.657 45.4348ZM118.119 45.4348C118.119 46.1972 118.271 46.7689 118.576 47.1882C118.882 47.6075 119.339 47.7981 119.911 47.7981C120.483 47.7981 120.941 47.6075 121.246 47.1882C121.551 46.7689 121.704 46.1972 121.704 45.4348C121.704 44.6725 121.551 44.1007 121.246 43.7196C120.941 43.3384 120.483 43.1097 119.873 43.1097C119.263 43.1097 118.843 43.3003 118.538 43.6815C118.271 44.1007 118.119 44.6725 118.119 45.4348Z" fill="white"/>
<path d="M128.722 48.4457H127.806V43.2618H126.014C125.899 44.5578 125.785 45.5869 125.594 46.3493C125.403 47.1116 125.175 47.6833 124.908 48.0264C124.641 48.3694 124.259 48.56 123.84 48.56C123.649 48.56 123.496 48.5219 123.382 48.4838V47.7977C123.458 47.8358 123.535 47.8358 123.649 47.8358C124.069 47.8358 124.412 47.3784 124.641 46.5017C124.869 45.625 125.06 44.291 125.213 42.4614H128.722V48.4457Z" fill="white"/>
<path d="M131.544 42.4614V44.9771H134.9V42.4614H135.816V48.4457H134.9V45.7394H131.544V48.4457H130.629V42.4614H131.544Z" fill="white"/>
<path d="M141.384 48.4462L141.193 47.6076H141.155C140.85 47.9888 140.545 48.2175 140.278 48.37C139.973 48.4843 139.63 48.5605 139.172 48.5605C138.562 48.5605 138.104 48.4081 137.761 48.1031C137.417 47.7982 137.265 47.3789 137.265 46.8072C137.265 45.5874 138.218 44.9776 140.164 44.9013L141.193 44.8632V44.4821C141.193 44.0247 141.079 43.6816 140.888 43.4529C140.697 43.2242 140.354 43.1099 139.935 43.1099C139.439 43.1099 138.867 43.2623 138.257 43.5673L137.99 42.8812C138.295 42.7287 138.6 42.6144 138.943 42.5C139.286 42.3857 139.63 42.3475 140.011 42.3475C140.736 42.3475 141.27 42.5 141.613 42.8049C141.956 43.1099 142.147 43.6435 142.147 44.3296V48.4081H141.384V48.4462ZM139.324 47.7982C139.897 47.7982 140.316 47.6457 140.659 47.3408C140.964 47.0359 141.155 46.6166 141.155 46.0448V45.5112L140.24 45.5493C139.515 45.5874 139.019 45.7018 138.676 45.8924C138.333 46.083 138.18 46.3879 138.18 46.8072C138.18 47.1502 138.295 47.3789 138.485 47.5695C138.676 47.7601 138.981 47.7982 139.324 47.7982Z" fill="white"/>
<path d="M144.206 48.4457H143.138L144.855 45.93C144.397 45.8156 144.054 45.625 143.787 45.3201C143.558 45.0152 143.405 44.6721 143.405 44.2147C143.405 43.6811 143.596 43.2237 143.939 42.9188C144.321 42.6138 144.817 42.4614 145.465 42.4614H148.135V48.4457H147.219V46.0443H145.694L144.206 48.4457ZM144.321 44.2147C144.321 44.9008 144.817 45.2439 145.808 45.2439H147.257V43.2237H145.617C144.778 43.2618 144.321 43.5667 144.321 44.2147Z" fill="white"/>
<path d="M152.711 44.8631C152.711 43.5671 152.902 42.5379 153.284 41.8137C153.665 41.0895 154.275 40.6321 155.114 40.4415C156.144 40.2128 157.059 40.0222 157.86 39.9079L158.013 40.7083C156.754 40.937 155.839 41.0895 155.305 41.2039C154.771 41.3182 154.39 41.6231 154.123 42.0424C153.856 42.4998 153.703 43.1097 153.703 43.872H153.779C154.008 43.5671 154.313 43.3384 154.657 43.1478C155 42.9572 155.381 42.881 155.763 42.881C156.487 42.881 157.059 43.1097 157.479 43.6052C157.898 44.0626 158.089 44.7487 158.089 45.5873C158.089 46.5402 157.86 47.2644 157.365 47.7599C156.907 48.2935 156.22 48.5604 155.381 48.5604C154.542 48.5604 153.894 48.2554 153.398 47.6074C152.94 46.9214 152.711 46.0447 152.711 44.8631ZM155.496 47.798C156.602 47.798 157.174 47.0738 157.174 45.6635C157.174 44.3294 156.678 43.6433 155.648 43.6433C155.381 43.6433 155.114 43.7196 154.847 43.8339C154.58 43.9483 154.351 44.1007 154.161 44.2913C153.932 44.4819 153.779 44.6725 153.665 44.8631C153.665 45.816 153.818 46.5402 154.123 47.0357C154.39 47.5312 154.847 47.798 155.496 47.798Z" fill="white"/>
<path d="M163.352 48.4462L163.162 47.6076H163.124C162.819 47.9888 162.513 48.2175 162.246 48.37C161.941 48.4843 161.598 48.5605 161.14 48.5605C160.53 48.5605 160.072 48.4081 159.729 48.1031C159.386 47.7982 159.233 47.3789 159.233 46.8072C159.233 45.5874 160.187 44.9776 162.132 44.9013L163.162 44.8632V44.4821C163.162 44.0247 163.047 43.6816 162.857 43.4529C162.666 43.2242 162.323 43.1099 161.903 43.1099C161.407 43.1099 160.835 43.2623 160.225 43.5673L159.958 42.8812C160.263 42.7287 160.568 42.6144 160.912 42.5C161.255 42.3857 161.598 42.3475 161.979 42.3475C162.704 42.3475 163.238 42.5 163.581 42.8049C163.925 43.1099 164.115 43.6435 164.115 44.3296V48.4081H163.352V48.4462ZM161.331 47.7982C161.903 47.7982 162.323 47.6457 162.666 47.3408C162.971 47.0359 163.162 46.6166 163.162 46.0448V45.5112L162.246 45.5493C161.522 45.5874 161.026 45.7018 160.683 45.8924C160.339 46.083 160.187 46.3879 160.187 46.8072C160.187 47.1502 160.301 47.3789 160.492 47.5695C160.683 47.7601 160.95 47.7982 161.331 47.7982Z" fill="white"/>
<path d="M167.052 44.9395C168.196 44.9395 168.73 44.6345 168.73 43.9865C168.73 43.4148 168.272 43.1099 167.357 43.1099C167.09 43.1099 166.823 43.148 166.594 43.1861C166.365 43.2242 166.06 43.3386 165.679 43.491L165.374 42.7668C165.984 42.5 166.671 42.3475 167.395 42.3475C168.082 42.3475 168.616 42.5 169.035 42.7668C169.417 43.0336 169.645 43.4148 169.645 43.9103C169.645 44.5964 169.264 45.0157 168.539 45.2063V45.2444C168.997 45.3969 169.34 45.5874 169.531 45.8161C169.76 46.083 169.836 46.3879 169.836 46.7691C169.836 47.3027 169.607 47.7601 169.15 48.065C168.692 48.37 168.082 48.5224 167.319 48.5224C166.442 48.5224 165.793 48.4081 165.336 48.1413V47.3027C165.984 47.6076 166.671 47.7601 167.357 47.7601C167.891 47.7601 168.272 47.6839 168.539 47.4933C168.806 47.3027 168.959 47.0359 168.959 46.7309C168.959 46.0448 168.387 45.7018 167.281 45.7018H166.442V44.9395H167.052Z" fill="white"/>
<path d="M174.947 48.4462L174.756 47.6076H174.718C174.413 47.9888 174.108 48.2175 173.841 48.37C173.536 48.4843 173.192 48.5605 172.735 48.5605C172.125 48.5605 171.667 48.4081 171.324 48.1031C170.98 47.7982 170.828 47.3789 170.828 46.8072C170.828 45.5874 171.781 44.9776 173.726 44.9013L174.756 44.8632V44.4821C174.756 44.0247 174.642 43.6816 174.451 43.4529C174.26 43.2242 173.917 43.1099 173.498 43.1099C173.002 43.1099 172.43 43.2623 171.819 43.5673L171.552 42.8812C171.858 42.7287 172.163 42.6144 172.506 42.5C172.849 42.3857 173.192 42.3475 173.574 42.3475C174.299 42.3475 174.832 42.5 175.176 42.8049C175.519 43.1099 175.71 43.6435 175.71 44.3296V48.4081H174.947V48.4462ZM172.926 47.7982C173.498 47.7982 173.917 47.6457 174.26 47.3408C174.566 47.0359 174.756 46.6166 174.756 46.0448V45.5112L173.841 45.5493C173.116 45.5874 172.62 45.7018 172.277 45.8924C171.934 46.083 171.781 46.3879 171.781 46.8072C171.781 47.1502 171.896 47.3789 172.086 47.5695C172.277 47.7601 172.582 47.7982 172.926 47.7982Z" fill="white"/>
<path d="M83.2209 57.4793C83.2209 58.4703 82.992 59.2327 82.5344 59.7663C82.0767 60.2999 81.4283 60.5667 80.6274 60.5667C79.8646 60.5667 79.2544 60.338 78.7967 59.8425C78.339 59.347 78.072 58.6609 78.0339 57.7842H76.4702V60.4905H75.5167V54.5062H76.432V57.0219H77.9957C78.072 56.1833 78.339 55.5353 78.7967 55.0779C79.2544 54.6205 79.8646 54.3918 80.6274 54.3918C81.4283 54.3918 82.0767 54.6587 82.5344 55.2304C82.992 55.764 83.2209 56.5264 83.2209 57.4793ZM78.9492 57.4793C78.9492 58.2416 79.0637 58.8134 79.3306 59.2327C79.5976 59.6519 80.0171 59.8425 80.5892 59.8425C81.1613 59.8425 81.5809 59.6519 81.8479 59.2708C82.1148 58.8896 82.2674 58.2797 82.2674 57.5174C82.2674 56.7551 82.153 56.1833 81.886 55.8022C81.619 55.421 81.1995 55.2304 80.6274 55.2304C80.0553 55.2304 79.6358 55.421 79.3688 55.8022C79.0637 56.1071 78.9492 56.717 78.9492 57.4793Z" fill="white"/>
<path d="M87.607 60.567C87.2256 60.567 86.8442 60.4908 86.539 60.3383C86.2339 60.1859 85.9288 59.9572 85.7381 59.6904H85.6618C85.7 60.0334 85.7381 60.3765 85.7381 60.6814V63.1209H84.8228V54.4684H85.5474L85.6618 55.2688H85.7C85.9288 54.9258 86.1958 54.6971 86.5009 54.5446C86.806 54.3922 87.1493 54.3159 87.5688 54.3159C88.3697 54.3159 88.98 54.5827 89.3995 55.1164C89.8191 55.65 90.0479 56.4123 90.0479 57.4034C90.0479 58.3944 89.8191 59.1567 89.3995 59.6904C88.98 60.3002 88.3697 60.567 87.607 60.567ZM87.4544 55.1545C86.8442 55.1545 86.3865 55.3069 86.1195 55.65C85.8525 55.993 85.7 56.5267 85.7 57.2509V57.4415C85.7 58.28 85.8525 58.8899 86.1195 59.233C86.3865 59.576 86.8442 59.7666 87.4544 59.7666C87.9884 59.7666 88.3697 59.576 88.6749 59.1567C88.98 58.7374 89.1325 58.1657 89.1325 57.4415C89.1325 56.6791 88.98 56.1074 88.6749 55.7262C88.4079 55.3451 87.9884 55.1545 87.4544 55.1545Z" fill="white"/>
<path d="M91.5354 59.8806C91.5354 59.6519 91.5735 59.4613 91.688 59.3089C91.8024 59.1945 91.9549 59.1183 92.1838 59.1183C92.4126 59.1183 92.5652 59.1945 92.6796 59.3089C92.794 59.4232 92.8703 59.6138 92.8703 59.8806C92.8703 60.1093 92.794 60.2999 92.6796 60.4143C92.5652 60.5286 92.4126 60.6048 92.1838 60.6048C91.9931 60.6048 91.8405 60.5286 91.7261 60.4143C91.5735 60.338 91.5354 60.1474 91.5354 59.8806Z" fill="white"/>
<path d="M101.185 60.4531L100.994 59.6145H100.956C100.651 59.9957 100.346 60.2244 100.079 60.3769C99.7735 60.4912 99.4303 60.5674 98.9726 60.5674C98.3624 60.5674 97.9047 60.415 97.5614 60.11C97.2182 59.8051 97.0656 59.3858 97.0656 58.8141C97.0656 57.5943 98.0191 56.9845 99.9642 56.9082L100.994 56.8701V56.489C100.994 56.0316 100.88 55.6885 100.689 55.4598C100.498 55.2311 100.155 55.1168 99.7354 55.1168C99.2396 55.1168 98.6675 55.2692 98.0572 55.5742L97.7903 54.8881C98.0954 54.7356 98.4005 54.6212 98.7438 54.5069C99.087 54.3925 99.4303 54.3544 99.8117 54.3544C100.536 54.3544 101.07 54.5069 101.414 54.8118C101.757 55.1168 101.947 55.6504 101.947 56.3365V60.415H101.185V60.4531ZM99.1633 59.8051C99.7354 59.8051 100.155 59.6526 100.498 59.3477C100.803 59.0428 100.994 58.6235 100.994 58.0517V57.5181L100.079 57.5562C99.354 57.5943 98.8582 57.7087 98.5149 57.8993C98.1717 58.0899 98.0191 58.3948 98.0191 58.8141C98.0191 59.1571 98.1335 59.3858 98.3242 59.5764C98.5149 59.767 98.7819 59.8051 99.1633 59.8051Z" fill="white"/>
<path d="M108.927 62.5109H108.05V60.4526H103.854V62.5109H102.977V59.6521H103.435C103.931 59.0041 104.312 58.2037 104.579 57.327C104.846 56.4503 104.999 55.4974 104.999 54.4683H108.012V59.6521H108.851V62.5109H108.927ZM107.211 59.6902V55.1925H105.876C105.838 55.9929 105.685 56.8315 105.418 57.6319C105.151 58.4705 104.808 59.1185 104.427 59.6521H107.211V59.6902Z" fill="white"/>
<path d="M112.894 60.567C112.512 60.567 112.131 60.4908 111.826 60.3383C111.521 60.1859 111.215 59.9572 111.025 59.6904H110.948C110.987 60.0334 111.025 60.3765 111.025 60.6814V63.1209H110.109V54.4684H110.834L110.948 55.2688H110.987C111.215 54.9258 111.482 54.6971 111.788 54.5446C112.093 54.3922 112.436 54.3159 112.855 54.3159C113.656 54.3159 114.267 54.5827 114.686 55.1164C115.106 55.65 115.335 56.4123 115.335 57.4034C115.335 58.3944 115.106 59.1567 114.686 59.6904C114.305 60.3002 113.695 60.567 112.894 60.567ZM112.779 55.1545C112.169 55.1545 111.711 55.3069 111.444 55.65C111.177 55.993 111.025 56.5267 111.025 57.2509V57.4415C111.025 58.28 111.177 58.8899 111.444 59.233C111.711 59.576 112.169 59.7666 112.779 59.7666C113.313 59.7666 113.695 59.576 114 59.1567C114.305 58.7374 114.457 58.1657 114.457 57.4415C114.457 56.6791 114.305 56.1074 114 55.7262C113.733 55.3451 113.313 55.1545 112.779 55.1545Z" fill="white"/>
<path d="M119.492 60.5667C118.614 60.5667 117.928 60.2999 117.394 59.7663C116.86 59.2327 116.631 58.4703 116.631 57.5174C116.631 56.5645 116.86 55.8022 117.356 55.2304C117.852 54.6587 118.462 54.3918 119.263 54.3918C120.026 54.3918 120.598 54.6205 121.055 55.1161C121.475 55.6116 121.704 56.2596 121.704 57.06V57.6318H117.585C117.585 58.3179 117.775 58.8515 118.119 59.2327C118.462 59.6138 118.92 59.7663 119.53 59.7663C120.178 59.7663 120.827 59.6138 121.437 59.347V60.1475C121.132 60.2999 120.827 60.3762 120.521 60.4524C120.254 60.5286 119.911 60.5667 119.492 60.5667ZM119.263 55.1161C118.767 55.1161 118.386 55.2685 118.119 55.5735C117.852 55.8784 117.661 56.3358 117.623 56.8694H120.75C120.75 56.2977 120.636 55.8784 120.369 55.5735C120.102 55.2685 119.721 55.1161 119.263 55.1161Z" fill="white"/>
<path d="M125.632 60.5667C124.755 60.5667 124.107 60.2999 123.611 59.7663C123.115 59.2327 122.886 58.4703 122.886 57.5174C122.886 56.5264 123.115 55.764 123.611 55.1923C124.107 54.6587 124.793 54.3918 125.67 54.3918C125.976 54.3918 126.243 54.43 126.548 54.4681C126.853 54.5062 127.043 54.6205 127.234 54.6968L126.967 55.4591C126.776 55.3829 126.548 55.3066 126.319 55.2685C126.09 55.2304 125.861 55.1923 125.709 55.1923C124.488 55.1923 123.878 55.9546 123.878 57.5174C123.878 58.2416 124.03 58.8134 124.336 59.1945C124.641 59.5757 125.06 59.7663 125.67 59.7663C126.166 59.7663 126.662 59.6519 127.196 59.4614V60.2618C126.738 60.4524 126.243 60.5667 125.632 60.5667Z" fill="white"/>
<path d="M133.718 57.4796C133.718 58.4707 133.489 59.1949 132.993 59.7666C132.497 60.3384 131.811 60.6052 130.972 60.6052C130.438 60.6052 129.98 60.4908 129.561 60.224C129.141 59.9572 128.836 59.6142 128.607 59.1568C128.378 58.6994 128.264 58.1276 128.264 57.5177C128.264 56.5267 128.493 55.8025 128.989 55.2307C129.484 54.6971 130.171 54.4303 131.01 54.4303C131.849 54.4303 132.497 54.6971 132.993 55.2689C133.451 55.7644 133.718 56.5267 133.718 57.4796ZM129.141 57.4796C129.141 58.242 129.294 58.8137 129.599 59.233C129.904 59.6523 130.362 59.8429 130.934 59.8429C131.506 59.8429 131.963 59.6523 132.269 59.233C132.574 58.8137 132.726 58.242 132.726 57.4796C132.726 56.7173 132.574 56.1455 132.269 55.7644C131.963 55.3832 131.506 55.1545 130.896 55.1545C130.285 55.1545 129.866 55.3451 129.561 55.7263C129.294 56.1074 129.141 56.6792 129.141 57.4796Z" fill="white"/>
<path d="M140.163 55.9932C140.163 56.3744 140.049 56.6793 139.82 56.8699C139.591 57.0605 139.286 57.213 138.867 57.2892V57.3273C139.363 57.4035 139.744 57.556 139.973 57.7847C140.202 58.0134 140.316 58.3183 140.316 58.7376C140.316 59.3094 140.125 59.7287 139.706 60.0336C139.286 60.3385 138.714 60.491 137.913 60.491H135.282V54.5067H137.913C139.401 54.4686 140.163 54.9641 140.163 55.9932ZM139.248 56.0695C139.248 55.7645 139.134 55.5739 138.905 55.4596C138.676 55.3452 138.333 55.269 137.875 55.269H136.159V56.9461H137.684C138.257 56.9461 138.638 56.8699 138.867 56.7556C139.096 56.6412 139.248 56.3744 139.248 56.0695ZM139.439 58.6614C139.439 58.3565 139.324 58.0896 139.057 57.9372C138.829 57.7847 138.409 57.7085 137.837 57.7085H136.197V59.6905H137.875C138.905 59.6905 139.439 59.3475 139.439 58.6614Z" fill="white"/>
<path d="M149.393 55.9932C149.393 56.3744 149.279 56.6793 149.05 56.8699C148.821 57.0605 148.516 57.213 148.096 57.2892V57.3273C148.592 57.4035 148.974 57.556 149.203 57.7847C149.431 58.0134 149.546 58.3183 149.546 58.7376C149.546 59.3094 149.355 59.7287 148.936 60.0336C148.516 60.3385 147.944 60.491 147.143 60.491H144.549V54.5067H147.181C148.669 54.4686 149.393 54.9641 149.393 55.9932ZM148.516 56.0695C148.516 55.7645 148.402 55.5739 148.173 55.4596C147.944 55.3452 147.601 55.269 147.143 55.269H145.427V56.9461H146.952C147.524 56.9461 147.906 56.8699 148.135 56.7556C148.363 56.6412 148.516 56.3744 148.516 56.0695ZM148.669 58.6614C148.669 58.3565 148.554 58.0896 148.287 57.9372C148.058 57.7847 147.639 57.7085 147.067 57.7085H145.427V59.6905H147.105C148.173 59.6905 148.669 59.3475 148.669 58.6614Z" fill="white"/>
<path d="M157.479 60.4525L154.771 53.4009H154.733C154.771 53.9726 154.809 54.6206 154.809 55.3829V60.4525H153.97V52.4861H155.381L157.898 59.0421H157.937L160.492 52.4861H161.865V60.4525H160.95V55.3067C160.95 54.735 160.988 54.087 161.026 53.4009H160.95L158.242 60.4525H157.479Z" fill="white"/>
<path d="M169.035 57.4796C169.035 58.4707 168.806 59.1949 168.311 59.7666C167.815 60.3384 167.128 60.6052 166.289 60.6052C165.755 60.6052 165.298 60.4908 164.878 60.224C164.459 59.9572 164.153 59.6142 163.925 59.1568C163.696 58.6994 163.581 58.1276 163.581 57.5177C163.581 56.5267 163.81 55.8025 164.306 55.2307C164.802 54.6971 165.488 54.4303 166.327 54.4303C167.166 54.4303 167.815 54.6971 168.311 55.2689C168.806 55.7644 169.035 56.5267 169.035 57.4796ZM164.497 57.4796C164.497 58.242 164.649 58.8137 164.954 59.233C165.259 59.6523 165.717 59.8429 166.289 59.8429C166.861 59.8429 167.319 59.6523 167.624 59.233C167.929 58.8137 168.082 58.242 168.082 57.4796C168.082 56.7173 167.929 56.1455 167.624 55.7644C167.319 55.3832 166.861 55.1545 166.251 55.1545C165.641 55.1545 165.221 55.3451 164.916 55.7263C164.649 56.1074 164.497 56.6792 164.497 57.4796Z" fill="white"/>
<path d="M173.04 60.5667C172.163 60.5667 171.514 60.2999 171.019 59.7663C170.523 59.2327 170.294 58.4703 170.294 57.5174C170.294 56.5264 170.523 55.764 171.019 55.1923C171.514 54.6587 172.201 54.3918 173.078 54.3918C173.383 54.3918 173.65 54.43 173.955 54.4681C174.26 54.5062 174.451 54.6205 174.642 54.6968L174.375 55.4591C174.184 55.3829 173.955 55.3066 173.726 55.2685C173.498 55.2304 173.269 55.1923 173.116 55.1923C171.896 55.1923 171.286 55.9546 171.286 57.5174C171.286 58.2416 171.438 58.8134 171.743 59.1945C172.048 59.5757 172.468 59.7663 173.078 59.7663C173.574 59.7663 174.07 59.6519 174.604 59.4614V60.2618C174.146 60.4524 173.612 60.5667 173.04 60.5667Z" fill="white"/>
<path d="M179.447 54.4683H180.439L177.846 57.3651L180.63 60.4526H179.562L176.854 57.4414V60.4526H175.939V54.4683H176.854V57.3651L179.447 54.4683Z" fill="white"/>
<path d="M186.58 55.9932C186.58 56.3744 186.465 56.6793 186.236 56.8699C186.007 57.0605 185.702 57.213 185.283 57.2892V57.3273C185.779 57.4035 186.16 57.556 186.389 57.7847C186.618 58.0134 186.732 58.3183 186.732 58.7376C186.732 59.3094 186.541 59.7287 186.122 60.0336C185.702 60.3385 185.13 60.491 184.329 60.491H181.698V54.5067H184.329C185.855 54.4686 186.58 54.9641 186.58 55.9932ZM185.702 56.0695C185.702 55.7645 185.588 55.5739 185.359 55.4596C185.13 55.3452 184.787 55.269 184.329 55.269H182.613V56.9461H184.139C184.711 56.9461 185.092 56.8699 185.321 56.7556C185.55 56.6412 185.702 56.3744 185.702 56.0695ZM185.893 58.6614C185.893 58.3565 185.779 58.0896 185.512 57.9372C185.283 57.7847 184.863 57.7085 184.291 57.7085H182.651V59.6905H184.329C185.359 59.6905 185.893 59.3475 185.893 58.6614Z" fill="white"/>
<path d="M190.622 60.5667C189.745 60.5667 189.059 60.2999 188.525 59.7663C187.991 59.2327 187.762 58.4703 187.762 57.5174C187.762 56.5645 187.991 55.8022 188.487 55.2304C188.982 54.6587 189.593 54.3918 190.393 54.3918C191.156 54.3918 191.728 54.6205 192.186 55.1161C192.606 55.6116 192.834 56.2596 192.834 57.06V57.6318H188.715C188.715 58.3179 188.906 58.8515 189.249 59.2327C189.593 59.6138 190.05 59.7663 190.66 59.7663C191.309 59.7663 191.957 59.6138 192.567 59.347V60.1475C192.262 60.2999 191.957 60.3762 191.652 60.4524C191.385 60.5286 191.042 60.5667 190.622 60.5667ZM190.393 55.1161C189.898 55.1161 189.516 55.2685 189.249 55.5735C188.982 55.8784 188.792 56.3358 188.753 56.8694H191.881C191.881 56.2977 191.767 55.8784 191.5 55.5735C191.233 55.2685 190.851 55.1161 190.393 55.1161Z" fill="white"/>
<defs>
<linearGradient id="paint0_linear" x1="34.0065" y1="67.6386" x2="34.0065" y2="0.770143" gradientUnits="userSpaceOnUse">
<stop stop-color="#A80532"/>
<stop offset="1" stop-color="#E2003E"/>
</linearGradient>
</defs>
</svg>
